<?xml version="1.0" encoding="utf-8"?>
<!-- Generator: Adobe Illustrator 19.1.0, SVG Export Plug-In . SVG Version: 6.00 Build 0)  -->
<svg version="1.1" id="Layer_1" xmlns="http://www.w3.org/2000/svg" xmlns:xlink="http://www.w3.org/1999/xlink" x="0px" y="0px"
	 viewBox="0 0 9.4 10.3" style="enable-background:new 0 0 9.4 10.3;" xml:space="preserve">
<style type="text/css">
	.st0{fill:#FFFFFF;}
</style>
<g>
	<path class="st0" d="M9.4,2.4c0,0.1-0.1,0.2-0.2,0.2H8.6v6.4c0,0.7-0.5,1.4-1.1,1.4H1.9c-0.6,0-1.1-0.6-1.1-1.3V2.6H0.2
		C0.1,2.6,0,2.5,0,2.4V1.9c0-0.1,0.1-0.2,0.2-0.2h2.1l0.5-1.1C2.9,0.3,3.3,0,3.6,0h2.1c0.4,0,0.8,0.3,0.9,0.6l0.5,1.1h2.1
		c0.1,0,0.2,0.1,0.2,0.2V2.4z M3.4,3.6c0-0.1-0.1-0.2-0.2-0.2H2.8c-0.1,0-0.2,0.1-0.2,0.2v4.7c0,0.1,0.1,0.2,0.2,0.2h0.4
		c0.1,0,0.2-0.1,0.2-0.2V3.6z M6.2,1.7L5.9,0.9c0,0-0.1-0.1-0.1-0.1H3.7c0,0-0.1,0-0.1,0.1L3.2,1.7H6.2z M5.1,3.6
		c0-0.1-0.1-0.2-0.2-0.2H4.5c-0.1,0-0.2,0.1-0.2,0.2v4.7c0,0.1,0.1,0.2,0.2,0.2h0.4c0.1,0,0.2-0.1,0.2-0.2V3.6z M6.9,3.6
		c0-0.1-0.1-0.2-0.2-0.2H6.2C6.1,3.4,6,3.5,6,3.6v4.7c0,0.1,0.1,0.2,0.2,0.2h0.4c0.1,0,0.2-0.1,0.2-0.2V3.6z"/>
</g>
</svg>
