<?xml version="1.0" encoding="utf-8"?>
<!-- Generator: Adobe Illustrator 19.1.0, SVG Export Plug-In . SVG Version: 6.00 Build 0)  -->
<svg version="1.1" id="Layer_1" xmlns="http://www.w3.org/2000/svg" xmlns:xlink="http://www.w3.org/1999/xlink" x="0px" y="0px"
	 viewBox="0 0 11.9 9.4" style="enable-background:new 0 0 11.9 9.4;" xml:space="preserve">
<style type="text/css">
	.st0{fill:#363A41;}
</style>
<g>
	<path class="st0" d="M9.4,7.5c0,1.1-0.9,1.9-1.9,1.9H1.9C0.9,9.4,0,8.6,0,7.5V1.9C0,0.9,0.9,0,1.9,0h5.6C7.8,0,8,0.1,8.3,0.2
		c0.1,0,0.1,0.1,0.1,0.2c0,0.1,0,0.1-0.1,0.2L8,0.8C8,0.9,7.9,0.9,7.8,0.9c-0.1,0-0.2,0-0.3,0H1.9c-0.6,0-1.1,0.5-1.1,1.1v5.6
		c0,0.6,0.5,1.1,1.1,1.1h5.6c0.6,0,1.1-0.5,1.1-1.1V6.7c0-0.1,0-0.1,0.1-0.1l0.4-0.4C9.1,6,9.2,6,9.3,6c0.1,0,0.1,0.1,0.1,0.2V7.5z
		 M10.7,3.2L6.2,7.7H4.3V5.8l4.5-4.5L10.7,3.2z M6.7,6.3l-1-1L4.9,6.1v0.4h0.6v0.6h0.4L6.7,6.3z M8.7,2.3L6.3,4.6
		c-0.1,0.1-0.1,0.2,0,0.2c0.1,0.1,0.2,0.1,0.2,0l2.3-2.3c0.1-0.1,0.1-0.2,0-0.2C8.8,2.2,8.7,2.2,8.7,2.3z M11.1,2.8L9.2,0.9l0.6-0.6
		c0.2-0.2,0.7-0.2,0.9,0l1,1c0.2,0.2,0.2,0.7,0,0.9L11.1,2.8z"/>
</g>
</svg>
