<?xml version="1.0" encoding="utf-8"?>
<!-- Generator: Adobe Illustrator 19.1.0, SVG Export Plug-In . SVG Version: 6.00 Build 0)  -->
<svg version="1.1" id="Layer_1" xmlns="http://www.w3.org/2000/svg" xmlns:xlink="http://www.w3.org/1999/xlink" x="0px" y="0px"
	 viewBox="0 0 12.9 11.8" style="enable-background:new 0 0 12.9 11.8;" xml:space="preserve">
<style type="text/css">
	.st0{fill:#555655;}
</style>
<g>
	<path class="st0" d="M8.6,6.5c0,0.1-0.1,0.2-0.2,0.2l-1,0.2C7.3,7.1,7.3,7.2,7.2,7.4c0.2,0.3,0.4,0.5,0.6,0.8c0,0,0,0.1,0,0.1
		c0,0,0,0.1,0,0.1c-0.1,0.2-0.9,1-1.1,1c-0.1,0-0.1,0-0.1,0L5.8,8.8C5.6,8.9,5.4,8.9,5.3,9c0,0.3-0.1,0.7-0.2,1
		c0,0.1-0.1,0.2-0.2,0.2H3.7c-0.1,0-0.2-0.1-0.2-0.2L3.3,9C3.1,8.9,3,8.9,2.8,8.8L2,9.4c0,0-0.1,0-0.1,0c-0.1,0-0.1,0-0.1-0.1
		c-0.2-0.2-1-0.9-1-1.1c0,0,0-0.1,0-0.1C1,7.9,1.2,7.7,1.4,7.4C1.3,7.2,1.2,7,1.2,6.9l-1-0.2C0.1,6.7,0,6.6,0,6.5V5.3
		c0-0.1,0.1-0.2,0.2-0.2l1-0.2c0.1-0.2,0.1-0.3,0.2-0.5C1.2,4.1,1,3.9,0.8,3.6c0,0,0-0.1,0-0.1s0-0.1,0-0.1c0.1-0.2,0.9-1,1.1-1
		c0.1,0,0.1,0,0.1,0L2.8,3C3,2.9,3.1,2.9,3.3,2.8c0-0.3,0.1-0.7,0.2-1c0-0.1,0.1-0.2,0.2-0.2h1.2c0.1,0,0.2,0.1,0.2,0.2l0.2,1
		C5.4,2.9,5.6,2.9,5.8,3l0.8-0.6c0,0,0.1,0,0.1,0c0.1,0,0.1,0,0.1,0.1c0.2,0.2,1,0.9,1,1.1c0,0,0,0.1,0,0.1C7.6,3.9,7.4,4.1,7.2,4.4
		c0.1,0.2,0.2,0.4,0.2,0.5l1,0.2c0.1,0,0.2,0.1,0.2,0.2V6.5z M4.3,4.2C3.3,4.2,2.6,5,2.6,5.9s0.8,1.7,1.7,1.7S6,6.8,6,5.9
		S5.2,4.2,4.3,4.2z M12.9,2.9c0,0.1-0.9,0.2-1,0.2c-0.1,0.1-0.1,0.2-0.2,0.3C11.7,3.6,12,4.3,12,4.4c0,0,0,0,0,0
		c-0.1,0-0.8,0.5-0.8,0.5c-0.1,0-0.6-0.7-0.7-0.8c-0.1,0-0.1,0-0.2,0s-0.1,0-0.2,0C10,4.3,9.5,4.9,9.4,4.9c0,0-0.8-0.4-0.8-0.5
		c0,0,0,0,0,0c0-0.1,0.3-0.8,0.3-0.9C8.8,3.4,8.8,3.3,8.7,3.1c-0.1,0-1-0.1-1-0.2V2c0-0.1,0.9-0.2,1-0.2c0.1-0.1,0.1-0.2,0.2-0.3
		C8.9,1.3,8.6,0.6,8.6,0.5c0,0,0,0,0,0C8.7,0.4,9.4,0,9.4,0c0.1,0,0.6,0.7,0.7,0.8c0.1,0,0.1,0,0.2,0s0.1,0,0.2,0
		c0.2-0.3,0.4-0.5,0.6-0.8l0,0c0,0,0.8,0.4,0.8,0.5c0,0,0,0,0,0c0,0.1-0.3,0.8-0.3,0.9c0.1,0.1,0.1,0.2,0.2,0.3c0.1,0,1,0.1,1,0.2
		V2.9z M12.9,9.8c0,0.1-0.9,0.2-1,0.2c-0.1,0.1-0.1,0.2-0.2,0.3c0.1,0.1,0.3,0.8,0.3,0.9c0,0,0,0,0,0c-0.1,0-0.8,0.5-0.8,0.5
		c-0.1,0-0.6-0.7-0.7-0.8c-0.1,0-0.1,0-0.2,0s-0.1,0-0.2,0c-0.1,0.1-0.6,0.8-0.7,0.8c0,0-0.8-0.4-0.8-0.5c0,0,0,0,0,0
		c0-0.1,0.3-0.8,0.3-0.9c-0.1-0.1-0.1-0.2-0.2-0.3c-0.1,0-1-0.1-1-0.2V8.9c0-0.1,0.9-0.2,1-0.2c0.1-0.1,0.1-0.2,0.2-0.3
		C8.9,8.2,8.6,7.5,8.6,7.4c0,0,0,0,0,0c0.1,0,0.8-0.5,0.8-0.5c0.1,0,0.6,0.7,0.7,0.8c0.1,0,0.1,0,0.2,0s0.1,0,0.2,0
		c0.2-0.3,0.4-0.5,0.6-0.8l0,0c0,0,0.8,0.4,0.8,0.5c0,0,0,0,0,0c0,0.1-0.3,0.8-0.3,0.9c0.1,0.1,0.1,0.2,0.2,0.3c0.1,0,1,0.1,1,0.2
		V9.8z M10.3,1.6C9.8,1.6,9.4,2,9.4,2.5c0,0.5,0.4,0.9,0.9,0.9c0.5,0,0.9-0.4,0.9-0.9S10.8,1.6,10.3,1.6z M10.3,8.5
		c-0.5,0-0.9,0.4-0.9,0.9c0,0.5,0.4,0.9,0.9,0.9c0.5,0,0.9-0.4,0.9-0.9S10.8,8.5,10.3,8.5z"/>
</g>
</svg>
