<?xml version="1.0" encoding="utf-8"?>
<!-- Generator: Adobe Illustrator 19.1.0, SVG Export Plug-In . SVG Version: 6.00 Build 0)  -->
<svg version="1.1" id="Layer_1" xmlns="http://www.w3.org/2000/svg" xmlns:xlink="http://www.w3.org/1999/xlink" x="0px" y="0px"
	 viewBox="0 0 10.3 10.3" style="enable-background:new 0 0 10.3 10.3;" xml:space="preserve">
<style type="text/css">
	.st0{fill:#4CC6DF;}
</style>
<g>
	<path class="st0" d="M5.1,10.3C2.3,10.3,0,8,0,5.1S2.3,0,5.1,0s5.1,2.3,5.1,5.1S8,10.3,5.1,10.3z M6.9,7.3c0-0.1-0.1-0.2-0.2-0.2H6
		V3.6c0-0.1-0.1-0.2-0.2-0.2H3.6c-0.1,0-0.2,0.1-0.2,0.2v1.1c0,0.1,0.1,0.2,0.2,0.2h0.6v2.1H3.6c-0.1,0-0.2,0.1-0.2,0.2v1.1
		c0,0.1,0.1,0.2,0.2,0.2h3c0.1,0,0.2-0.1,0.2-0.2V7.3z M6,1.3c0-0.1-0.1-0.2-0.2-0.2H4.5c-0.1,0-0.2,0.1-0.2,0.2v1.1
		c0,0.1,0.1,0.2,0.2,0.2h1.3C5.9,2.6,6,2.5,6,2.4V1.3z"/>
</g>
</svg>
