<?xml version="1.0" encoding="utf-8"?>
<!-- Generator: Adobe Illustrator 19.1.0, SVG Export Plug-In . SVG Version: 6.00 Build 0)  -->
<svg version="1.1" id="Layer_1" xmlns="http://www.w3.org/2000/svg" xmlns:xlink="http://www.w3.org/1999/xlink" x="0px" y="0px"
	 viewBox="0 0 10.3 10.3" style="enable-background:new 0 0 10.3 10.3;" xml:space="preserve">
<style type="text/css">
	.st0{fill:#4DC6DE;}
</style>
<g>
	<path class="st0" d="M5.1,10.3C2.3,10.3,0,8,0,5.1C0,2.3,2.3,0,5.1,0s5.1,2.3,5.1,5.1C10.3,8,8,10.3,5.1,10.3z M5.3,1.7
		c-1.1,0-1.9,0.5-2.5,1.4c-0.1,0.1,0,0.2,0.1,0.3l0.9,0.7c0,0,0.1,0,0.1,0c0.1,0,0.1,0,0.2-0.1c0.3-0.4,0.4-0.5,0.6-0.6
		c0.1-0.1,0.3-0.2,0.6-0.2C5.6,3.3,6,3.6,6,3.8c0,0.3-0.2,0.5-0.6,0.7C4.9,4.8,4.3,5.3,4.3,6v0.2c0,0.1,0.1,0.2,0.2,0.2h1.3
		C5.9,6.4,6,6.3,6,6.2c0-0.2,0.2-0.5,0.5-0.7C7,5.3,7.7,4.9,7.7,3.9C7.7,2.6,6.4,1.7,5.3,1.7z M6,7.1C6,7,5.9,6.9,5.8,6.9H4.5
		C4.4,6.9,4.3,7,4.3,7.1v1.3c0,0.1,0.1,0.2,0.2,0.2h1.3C5.9,8.6,6,8.5,6,8.4V7.1z"/>
</g>
</svg>
