<?xml version="1.0" encoding="utf-8"?>
<!-- Generator: Adobe Illustrator 19.1.0, SVG Export Plug-In . SVG Version: 6.00 Build 0)  -->
<svg version="1.1" id="Layer_1" xmlns="http://www.w3.org/2000/svg" xmlns:xlink="http://www.w3.org/1999/xlink" x="0px" y="0px"
	 viewBox="0 0 12 11.1" style="enable-background:new 0 0 12 11.1;" xml:space="preserve">
<style type="text/css">
	.st0{fill:#DEDEDE;}
</style>
<g>
	<path class="st0" d="M11.9,9.9c0.1,0.3,0.1,0.6,0,0.8c-0.2,0.3-0.4,0.4-0.7,0.4H0.9c-0.3,0-0.6-0.2-0.7-0.4C0,10.5,0,10.1,0.1,9.9
		l5.1-9.4C5.4,0.2,5.7,0,6,0s0.6,0.2,0.8,0.4L11.9,9.9z M7,3.6c0,0,0-0.1-0.1-0.1c0,0-0.1-0.1-0.2-0.1H5.3c-0.1,0-0.1,0-0.2,0.1
		c0,0-0.1,0.1-0.1,0.1l0.1,3.1c0,0.1,0.1,0.2,0.2,0.2h1.2c0.1,0,0.2-0.1,0.2-0.2L7,3.6z M6.9,7.9c0-0.1-0.1-0.2-0.2-0.2H5.4
		c-0.1,0-0.2,0.1-0.2,0.2v1.3c0,0.1,0.1,0.2,0.2,0.2h1.3c0.1,0,0.2-0.1,0.2-0.2V7.9z"/>
</g>
</svg>
