<?xml version="1.0" standalone="no"?>
<!DOCTYPE svg PUBLIC "-//W3C//DTD SVG 1.1//EN" "http://www.w3.org/Graphics/SVG/1.1/DTD/svg11.dtd" >
<svg xmlns="http://www.w3.org/2000/svg">
<metadata></metadata>
<defs>
<font id="getresponse_proregular" horiz-adv-x="1267" >
<font-face units-per-em="2048" ascent="1536" descent="-512" />
<missing-glyph horiz-adv-x="542" />
<glyph horiz-adv-x="0" />
<glyph unicode="&#xd;" horiz-adv-x="542" />
<glyph horiz-adv-x="0" />
<glyph horiz-adv-x="0" />
<glyph unicode=" "  horiz-adv-x="542" />
<glyph unicode="&#x09;" horiz-adv-x="542" />
<glyph unicode="&#xa0;" horiz-adv-x="542" />
<glyph unicode="!" horiz-adv-x="679" d="M205 1454h270l-20 -1034h-228zM215 0v242h252v-242h-252z" />
<glyph unicode="&#x22;" horiz-adv-x="755" d="M117 1053v428h192v-428h-192zM444 1053v428h193v-428h-193z" />
<glyph unicode="#" horiz-adv-x="1433" d="M66 383l30 186h244l51 287h-239l30 188h242l72 410h209l-72 -410h278l72 410h209l-72 -410h248l-33 -188h-245l-52 -287h244l-31 -186h-245l-66 -383h-209l68 383h-281l-65 -383h-209l65 383h-243zM549 569h280l52 287h-281z" />
<glyph unicode="$" horiz-adv-x="1146" d="M78 268l184 156q27 -43 64 -80q31 -33 77 -65.5t105 -49.5v404q-70 33 -138.5 70.5t-124 90t-89 122t-33.5 165.5q0 76 28.5 142.5t80 117t122 85t154.5 47.5v90v98h180v-98v-90q59 -8 119.5 -29t110 -54.5t81 -83t31.5 -114.5v-135h-242v63q0 35 -27.5 60.5t-72.5 42.5 v-373q70 -31 139.5 -68t126 -89t91 -123.5t34.5 -172.5q0 -76 -27.5 -145.5t-78.5 -124.5t-124 -94t-161 -51v-136v-53h-180v53v134q-115 16 -195 62t-133 97q-61 59 -102 129zM393 1085q0 -49 31 -84.5t84 -64.5v283q-53 -18 -84 -52.5t-31 -81.5zM688 231q53 20 85 59.5 t32 98.5q0 51 -32 87t-85 69v-314z" />
<glyph unicode="%" horiz-adv-x="1689" d="M113 1155q0 66 26.5 125t71.5 103t105.5 70t129.5 26q70 0 130.5 -26t106.5 -70t72.5 -103t26.5 -125q0 -68 -26.5 -127t-72.5 -102t-106.5 -69t-130.5 -26t-130 26t-105 69t-71.5 102t-26.5 127zM164 0l1116 1454h240l-1117 -1454h-239zM311 1155q0 -57 39 -96t96 -39 t97.5 39t40.5 96q0 55 -40 95t-98 40q-57 0 -96 -40t-39 -95zM907 297q0 66 25.5 125t71 103t106.5 70t131 26t130.5 -26t105.5 -70t71.5 -103.5t26.5 -124.5q0 -68 -26.5 -126t-71.5 -101t-105.5 -69t-130.5 -26t-131 26t-106.5 69t-71 101t-25.5 126zM1106 299 q0 -57 39 -96t96 -39t97 39t40 96q0 55 -40 95t-97 40t-96 -40t-39 -95z" />
<glyph unicode="&#x26;" horiz-adv-x="1333" d="M84 399q0 127 78 236q41 53 95 100t124 88l-51 78q-16 23 -28.5 43.5t-22.5 36.5q-10 18 -17.5 34.5t-13.5 31.5q-10 33 -12 61q-2 14 -3.5 29.5t-1.5 29.5q0 76 27 129q14 29 33.5 53.5t44.5 43.5q47 41 119 63q74 23 151 23q94 0 166 -25q70 -23 113 -65q45 -43 67 -99 q23 -51 23 -121q0 -109 -64 -200q-59 -86 -192 -183l221 -299q10 25 20.5 52.5t16.5 58.5q6 35 10 62.5t4 50.5h258q0 -59 -11 -116.5t-34 -113.5q-43 -113 -106 -207l192 -272h-315l-84 113q-53 -63 -148 -101q-90 -35 -206 -34q-141 0 -228 38q-88 43 -137 107 q-51 63 -70 137q-18 74 -18 137zM369 399q0 -33 12 -69q16 -37 41 -62q23 -29 65 -45q37 -18 88 -18q119 0 193 92l-248 352q-43 -33 -73 -64.5t-46 -60.5q-33 -53 -32 -125zM473 1178q0 -60 76 -164l35 -49l53 45q51 45 74 84q20 45 20 77q0 61 -37 93q-35 33 -94 32 q-55 0 -90 -32q-37 -31 -37 -86z" />
<glyph unicode="'" horiz-adv-x="430" d="M117 1053v428h196v-428h-196z" />
<glyph unicode="(" horiz-adv-x="718" d="M166 668q0 233 58.5 450t181.5 400h221q-117 -197 -173.5 -404t-56.5 -428q0 -229 59.5 -452.5t176.5 -428.5h-221q-123 180 -184.5 403.5t-61.5 459.5z" />
<glyph unicode=")" horiz-adv-x="718" d="M86 -195q117 205 176.5 428.5t59.5 452.5q0 221 -56.5 428t-173.5 404h221q123 -182 182.5 -399.5t59.5 -450.5q0 -236 -61.5 -459t-184.5 -404h-223z" />
<glyph unicode="*" horiz-adv-x="989" d="M76 1065l69 221l248 -100l-18 268h235l-18 -268l248 100l73 -219l-262 -66v-4l172 -202l-186 -138l-141 226h-4l-142 -226l-186 136l170 204v4z" />
<glyph unicode="+" d="M86 483v203h442v485h211v-485h443v-203h-443v-483h-211v483h-442z" />
<glyph unicode="," horiz-adv-x="542" d="M45 -215l137 479h250l-196 -479h-191z" />
<glyph unicode="-" horiz-adv-x="882" d="M133 471v227h617v-227h-617z" />
<glyph unicode="." horiz-adv-x="542" d="M145 0v260h252v-260h-252z" />
<glyph unicode="/" horiz-adv-x="751" d="M-2 -86l520 1614h223l-522 -1614h-221z" />
<glyph unicode="0" horiz-adv-x="1253" d="M100 729q0 156 27 293t88 238.5t161.5 160t250.5 58.5t250 -58.5t161.5 -160t88 -238.5t26.5 -293q0 -158 -26.5 -295t-88 -238.5t-161.5 -161t-250 -59.5t-250.5 59.5t-161.5 161t-88 238.5t-27 295zM371 729q0 -109 12 -202t41 -161.5t79 -108.5t124 -40t124 40 t78.5 108.5t41 162t12.5 201.5q0 106 -12.5 198.5t-41 161t-79 107.5t-123.5 39q-74 0 -124 -39t-79 -107.5t-41 -160.5t-12 -199z" />
<glyph unicode="1" horiz-adv-x="927" d="M153 1104q1 47 52 98l264 252h242v-283v-1171h-267v1034v68q0 16 2 33h-4q-6 -12 -14 -25q-8 -10 -20.5 -26.5t-28.5 -32.5l-119 -111l-61 64q-47 53 -46 100z" />
<glyph unicode="2" horiz-adv-x="1189" d="M68 193q0 131 52 221t132 154.5t171 114.5t171 100.5t132 111.5t52 149q0 86 -58 137.5t-153 51.5q-86 0 -138 -37t-52 -78v-63h-242v143q0 72 43 125t107.5 88t142.5 51.5t150 16.5q94 0 180 -30t150.5 -85t102.5 -135t38 -180q0 -123 -52.5 -210t-130.5 -152.5 t-169 -115t-168.5 -95.5t-130 -96t-52.5 -116q0 -37 55 -37h713v-88q0 -74 -32.5 -106.5t-106.5 -32.5h-758q-47 0 -76.5 11.5t-46 34t-21.5 59.5t-5 88z" />
<glyph unicode="3" horiz-adv-x="1138" d="M53 180l135 201q45 -43 99 -78q47 -29 111.5 -53.5t146.5 -24.5q109 0 178.5 60.5t69.5 156.5q0 49 -21.5 88t-58.5 67t-87.5 43t-107.5 15h-102l-54 133l246 330q18 29 34.5 48.5t31.5 33.5q16 16 31 29v4q-12 -2 -33 -4q-16 -2 -41 -2h-56l-469 2v86q0 72 27 105.5 t100 33.5h791v-166l-334 -418q74 -12 141.5 -44.5t120 -86t83 -127t30.5 -166.5q0 -90 -35 -175t-100.5 -150.5t-162.5 -105.5t-220 -40q-119 0 -210 32t-155 71q-74 45 -129 102z" />
<glyph unicode="4" horiz-adv-x="1206" d="M35 365v170l606 919h315v-862h39h47q72 0 105 -35t33 -106v-86h-224v-369h-270v369h-651zM317 586q18 0 39 2q16 2 39 3t49 1h248v405q0 27 1 54.5t3 50.5q2 27 4 51h-2q-12 -23 -24 -45q-10 -20 -24.5 -43t-28.5 -43l-230 -334q-16 -23 -28.5 -41t-22.5 -31 q-12 -16 -23 -26v-4z" />
<glyph unicode="5" horiz-adv-x="1218" d="M96 176l135 203q37 -43 88 -78q43 -29 106.5 -52.5t143.5 -23.5q61 0 110.5 19.5t84.5 52.5t53.5 77t18.5 93q0 61 -26 107.5t-69 77t-100 47t-119 16.5q-59 0 -109.5 -10.5t-86.5 -22.5q-43 -14 -78 -33l-94 47l53 619q6 72 35.5 105.5t101.5 33.5h537q139 0 139 -139 v-88h-528q-41 0 -46 -45l-18 -201q-4 -31 -6 -49q-2 -10 -4 -19h4q20 6 45 13q20 4 48 9t60 5q125 0 224.5 -37t168 -101.5t104.5 -151.5t36 -187q0 -96 -37 -184.5t-105.5 -156t-169 -108.5t-227.5 -41q-117 0 -205 31t-147 70q-70 45 -121 102z" />
<glyph unicode="6" horiz-adv-x="1177" d="M68 651q0 145 41 293t124.5 266.5t208.5 193.5t295 75q70 0 125.5 -10.5t93.5 -20.5q45 -14 80 -31l-78 -227q-29 12 -61 22q-29 8 -65.5 15.5t-77.5 7.5q-86 0 -151.5 -33t-114 -88t-78 -127t-41.5 -147h4q18 25 48 44t66.5 32.5t76.5 21.5t79 8q106 0 193.5 -39 t146.5 -105.5t92 -153.5t33 -185q0 -102 -34 -190.5t-97.5 -155t-151.5 -104.5t-194 -38q-115 0 -216.5 45.5t-179 131.5t-122.5 211.5t-45 287.5zM344 571q0 -68 23.5 -132t62.5 -113.5t90 -79t109 -29.5q51 0 92 19.5t68.5 52.5t43 78t15.5 96q0 55 -17.5 103t-51.5 84 t-83 57.5t-114 21.5q-49 0 -92.5 -12t-75 -33.5t-51 -50.5t-19.5 -62z" />
<glyph unicode="7" horiz-adv-x="1101" d="M45 1227v88q0 72 27.5 105.5t99.5 33.5h909v-184l-692 -1270h-293l600 1094q35 63 62 100q14 20 26 33v4q-8 -2 -22 -2q-12 -2 -30.5 -2h-47.5h-639z" />
<glyph unicode="8" horiz-adv-x="1193" d="M74 420q0 86 34.5 152.5t75.5 113.5q49 53 113 96v4q-45 29 -82 72q-31 35 -55.5 90.5t-24.5 128.5q0 78 31 150.5t90 128t146 89.5t200 34q106 0 192.5 -31t148 -85t94 -128t32.5 -160q0 -78 -25.5 -138t-54.5 -103q-35 -51 -78 -89v-4q96 -59 148.5 -142t52.5 -191 q0 -84 -37 -162t-104.5 -138.5t-162.5 -96.5t-214 -36q-109 0 -204 33t-165.5 91.5t-110.5 140.5t-40 180zM344 436q0 -100 72.5 -159.5t177.5 -59.5q51 0 96 15.5t79 42t53.5 63.5t19.5 82q0 76 -60.5 120t-148.5 81q-45 20 -82 34.5t-49 14.5q-18 0 -45 -18.5t-52.5 -50.5 t-43 -75t-17.5 -90zM395 1071q0 -76 56.5 -116.5t140.5 -73.5q18 -8 49 -19.5t47 -11.5t38 17.5t40 46t31.5 65.5t13.5 78q0 84 -58.5 131t-150.5 47q-98 0 -152.5 -48t-54.5 -116z" />
<glyph unicode="9" horiz-adv-x="1177" d="M68 991q0 100 33.5 189.5t97 155t151.5 104.5t197 39q113 0 215 -45t179 -131t122 -212t45 -288q0 -145 -41 -293t-125 -266.5t-210 -193.5t-294 -75q-70 0 -125 9.5t-94 21.5q-45 12 -80 31l78 227q29 -14 62 -24q29 -10 65.5 -16.5t77.5 -6.5q86 0 151.5 33t112.5 88 t78 127t43 149h-4q-18 -25 -48 -44t-66 -32.5t-77 -21.5t-80 -8q-109 0 -194.5 39t-145 105.5t-92 153.5t-32.5 185zM328 991q0 -55 17 -103t51 -84t84 -57.5t116 -21.5q47 0 90 12.5t75 33t51 49t19 63.5q0 68 -23.5 131t-62 112.5t-90 79t-108.5 29.5q-104 0 -161.5 -69.5 t-57.5 -174.5z" />
<glyph unicode=":" horiz-adv-x="626" d="M188 0v260h250v-260h-250zM188 784v260h250v-260h-250z" />
<glyph unicode=";" horiz-adv-x="626" d="M72 -215l112 479h248l-168 -479h-192zM190 784v260h250v-260h-250z" />
<glyph unicode="&#x3c;" d="M131 502v168l985 438v-227l-710 -293v-4l710 -293v-228z" />
<glyph unicode="=" d="M135 274v201h1000v-201h-1000zM135 694v201h1000v-201h-1000z" />
<glyph unicode="&#x3e;" d="M145 63v228l711 293v4l-711 293v227l985 -438v-168z" />
<glyph unicode="?" horiz-adv-x="974" d="M74 1335q43 41 100 74q49 29 121 51.5t164 22.5q86 0 167 -26.5t143 -76t99 -121t37 -161.5q0 -84 -26.5 -146.5t-65.5 -109.5t-86 -86t-86 -78t-65.5 -81t-26.5 -97v-80h-252v98q0 74 24.5 129t62.5 99.5t82 81t82 73.5t62.5 78t24.5 94q0 72 -57.5 121t-141.5 49 q-45 0 -84 -13t-69 -30q-37 -20 -66 -43zM297 0v242h252v-242h-252z" />
<glyph unicode="@" horiz-adv-x="1607" d="M57 723q0 76 12.5 146.5t45.5 140.5q29 66 68.5 123t86.5 106q55 53 113.5 90t124.5 66q70 33 140.5 45t150.5 12q76 0 145.5 -10t132.5 -27q72 -20 131.5 -51t112.5 -70q98 -76 166 -184q27 -59 44 -119.5t9 -132.5q-4 -160 -43 -262t-96.5 -161.5t-123 -83t-124.5 -29 t-103 1t-57 8.5q-39 4 -51 25.5t-6 52.5q2 4 4 10t2 10v8q-27 -37 -63 -65q-33 -25 -81 -44.5t-112 -19.5q-78 0 -135 29t-91 81t-44 123.5t6 157.5q14 92 53 165t93.5 124t121 79t137.5 28q61 0 100.5 -13.5t61.5 -29.5q25 -20 39 -43h8v10q0 10 6 33l7 43h186l-98 -572 q-8 -16 5 -25.5t29 -9.5h21q12 0 30.5 7.5t39 28t42 59.5t39.5 104q4 33 8.5 66.5t4.5 76.5q0 109 -35 185q-45 94 -115 143q-63 51 -164 86q-47 16 -101 21.5t-114 5.5q-125 0 -227 -41q-49 -16 -94 -47t-76 -68q-39 -39 -65.5 -81t-49.5 -91q-23 -53 -29.5 -107.5 t-6.5 -113.5q0 -129 43 -234q23 -49 50 -91t72 -81q37 -33 83 -62.5t102 -45.5q53 -23 111.5 -28t123.5 -5q59 0 109.5 5t103.5 22q25 8 40.5 1t28.5 -25.5t25.5 -47.5t28.5 -63q-158 -72 -401 -72q-80 0 -150.5 15.5t-140.5 41.5q-127 55 -238 150q-47 53 -87 109.5 t-68 125.5q-33 66 -45.5 138.5t-12.5 146.5zM606 700q-16 -106 25 -166.5t127 -60.5q35 0 70.5 13.5t66.5 41t55.5 72.5t34.5 111q8 43 4 83t-21.5 72.5t-49 52t-76.5 19.5q-80 0 -146.5 -60.5t-89.5 -177.5z" />
<glyph unicode="A" horiz-adv-x="1380" d="M25 0l526 1454h283l524 -1454h-160q-76 0 -111.5 24.5t-60.5 96.5l-88 254h-492l-92 -254q-23 -72 -57.5 -96.5t-112.5 -24.5h-159zM506 594h368l-126 362q-10 31 -20.5 68t-18.5 72q-8 37 -19 78h-2q-10 -41 -18 -78q-8 -35 -18.5 -72t-20.5 -68z" />
<glyph unicode="B" horiz-adv-x="1288" d="M201 139v1315h495q98 0 181.5 -24.5t142.5 -72.5t93 -118t34 -160q0 -61 -15.5 -110t-40 -88t-56 -68t-64.5 -45v-4q59 -18 103 -53t73 -81t43 -99.5t14 -108.5q0 -109 -40 -188.5t-109.5 -132t-160.5 -77t-192 -24.5h-362q-72 0 -105.5 33t-33.5 106zM469 272 q0 -45 45 -45h209q98 0 151.5 59.5t53.5 151.5t-53.5 150.5t-151.5 58.5h-254v-375zM469 860h229q86 0 131 54.5t45 132.5t-45 129t-135 51h-225v-367z" />
<glyph unicode="C" horiz-adv-x="1452" d="M61 739q0 158 56.5 293t155 234.5t233.5 156t293 56.5q70 0 165 -16.5t181 -54.5t145.5 -100.5t59.5 -154.5v-162h-244v82q0 39 -29.5 68.5t-74 49t-97.5 29t-100 9.5q-98 0 -182 -34t-147.5 -97.5t-99.5 -154.5t-36 -204q0 -106 37 -200.5t100.5 -164t150.5 -109.5 t185 -40q104 0 185 30t139 67q68 41 116 96l142 -193q-63 -72 -152 -125q-76 -47 -184.5 -86t-249.5 -39q-166 0 -304 58.5t-236.5 162t-153 242.5t-54.5 301z" />
<glyph unicode="D" horiz-adv-x="1464" d="M203 139v1315h459q168 0 305 -49t233 -141.5t149.5 -227.5t53.5 -307t-53.5 -307t-149.5 -229.5t-233.5 -143.5t-304.5 -49h-320q-74 0 -106.5 33t-32.5 106zM471 272q0 -45 45 -45h131q109 0 197 33t150.5 95.5t96 156.5t33.5 217q0 121 -33.5 214t-97 155.5 t-151.5 95.5t-195 33h-176v-955z" />
<glyph unicode="E" horiz-adv-x="1183" d="M203 141v1315h745q141 0 142 -141v-88h-619v-381h471v-228h-471v-346q0 -45 45 -45h432h47q74 0 108 -33.5t34 -105.5v-88h-402h-391q-76 0 -108.5 33t-32.5 108z" />
<glyph unicode="F" horiz-adv-x="1077" d="M203 0v1454h696q74 0 106.5 -34t32.5 -105v-88h-567v-412h465v-227h-465v-588h-268z" />
<glyph unicode="G" horiz-adv-x="1519" d="M63 735q0 156 56.5 292t156 236.5t234.5 158t293 57.5q135 0 234.5 -29t164.5 -64q78 -41 131 -92l-151 -192q-47 35 -105 63q-49 25 -116.5 45.5t-151.5 20.5q-94 0 -179 -36t-148.5 -100.5t-101.5 -155.5t-38 -202q0 -119 38 -214t103.5 -160.5t151.5 -101.5t184 -36 q86 0 154.5 23.5t116.5 52.5q55 33 98 76v108q0 45 -45 45h-88v228h235q74 0 107 -33t33 -104v-621h-230v70v43q0 10 2 18h-4q-47 -43 -113 -78q-55 -29 -134 -53.5t-181 -24.5q-143 0 -271 53.5t-225.5 152t-154 238.5t-56.5 316z" />
<glyph unicode="H" horiz-adv-x="1583" d="M203 0v1454h129q74 0 106.5 -34t32.5 -105v-477h641v477q0 139 139 139h129v-1454h-268v610h-641v-610h-268z" />
<glyph unicode="I" horiz-adv-x="700" d="M217 139v336v504v475h129q74 0 106.5 -34t32.5 -105v-336v-504v-475h-129q-74 0 -106.5 34t-32.5 105z" />
<glyph unicode="J" horiz-adv-x="1103" d="M41 430v84h268v-59q0 -66 16.5 -110t43 -70.5t60.5 -38t71 -11.5t70.5 11.5t60 38t42 67.5t15.5 100v740q0 45 -45 45h-352v227h526q139 0 139 -139v-885q0 -119 -39.5 -205t-104 -141t-146.5 -82t-168 -27t-168 27t-146.5 83t-103.5 142t-39 203z" />
<glyph unicode="K" horiz-adv-x="1298" d="M203 0v1454h129q74 0 106.5 -34t32.5 -105v-453h102q41 0 70 7.5t47 39.5l293 545h295l-328 -598q-16 -31 -33.5 -51.5t-29.5 -32.5q-16 -14 -29 -22v-5q14 -4 31 -16q14 -10 30.5 -30.5t32.5 -53.5l185 -371q16 -33 41.5 -40t60.5 -7h39v-227h-154q-41 0 -70.5 4 t-53 15.5t-42 33t-36.5 56.5l-238 477q-18 35 -51 42t-76 7h-86v-635h-268z" />
<glyph unicode="L" horiz-adv-x="1142" d="M203 139v1315h129q74 0 106.5 -34t32.5 -105v-1043q0 -45 45 -45h606v-88q0 -74 -32.5 -106.5t-106.5 -32.5h-641q-74 0 -106.5 33t-32.5 106z" />
<glyph unicode="M" horiz-adv-x="1652" d="M51 -4l123 1458h281l297 -694q14 -33 27.5 -67t23.5 -62q12 -35 22 -66h4q10 31 23 66q10 29 22.5 62.5t26.5 66.5l299 694h279l123 -1458h-152q-72 0 -101.5 33.5t-35.5 105.5l-47 649q-4 35 -5 75t-1 75q0 39 2 76h-5q-14 -43 -26 -82q-12 -35 -25.5 -74t-27.5 -70 l-242 -538h-217l-242 538q-16 31 -29.5 70t-25.5 74q-14 41 -27 84h-4q2 -39 2 -78v-75t-4 -75l-47 -649q-6 -72 -36 -105.5t-101 -33.5h-154z" />
<glyph unicode="N" horiz-adv-x="1540" d="M186 0v1454h242l551 -805q23 -33 44 -67.5t38 -65.5q20 -37 39 -72h4q-4 35 -8 72q-4 31 -5 65.5t-1 67.5v666q0 72 32.5 105.5t106.5 33.5h129v-1454h-240l-553 803q-23 31 -44 66.5t-38 66.5q-20 37 -39 72h-4q2 -35 6 -72q4 -31 6.5 -66.5t2.5 -66.5v-664 q0 -74 -33 -106.5t-107 -32.5h-129z" />
<glyph unicode="O" horiz-adv-x="1626" d="M61 737q0 156 57.5 291t158 235.5t238.5 158t298 57.5t298 -57.5t238.5 -158t158 -235.5t57.5 -291q0 -160 -57.5 -299t-158 -242.5t-238.5 -162t-298 -58.5t-298 58.5t-238.5 162t-158 242.5t-57.5 299zM340 737q0 -109 37 -203t101.5 -162.5t150.5 -107.5t184 -39 t184 39t150.5 107.5t101.5 163t37 202.5q0 104 -37 194.5t-101.5 156t-150.5 103.5t-184 38t-184 -38t-150.5 -103.5t-101.5 -156t-37 -194.5z" />
<glyph unicode="P" horiz-adv-x="1239" d="M203 0v1454h532q102 0 187.5 -34t146.5 -96t95 -149.5t34 -193.5t-34 -194.5t-95 -152t-146 -98t-188 -34.5h-264v-502h-268zM471 731h215q115 0 176.5 67.5t61.5 182.5q0 113 -61.5 179.5t-172.5 66.5h-219v-496z" />
<glyph unicode="Q" horiz-adv-x="1626" d="M59 735q0 156 57.5 292t159 235.5t237.5 157t296 57.5t297 -57.5t237.5 -157t158 -235.5t57.5 -292q0 -129 -43 -245.5t-115 -208.5l72 -66q45 -45 45 -86q0 -37 -39 -80l-78 -82l-160 150h-2q-92 -72 -200.5 -106t-229.5 -34q-160 0 -296 59.5t-237.5 162t-159 241 t-57.5 295.5zM338 735q0 -109 37 -201t100.5 -160.5t149.5 -107.5t184 -39q57 0 102 10.5t74 24.5q35 16 59 37h5l-152 139l156 166l151 -143q35 59 55.5 128.5t20.5 145.5q0 104 -37 194.5t-100.5 156t-149.5 102.5t-184 37t-184 -37t-149.5 -102.5t-100.5 -155.5t-37 -195 z" />
<glyph unicode="R" horiz-adv-x="1294" d="M203 0v1454h518q100 0 183 -29.5t142.5 -86t93.5 -138.5t34 -184q0 -98 -29 -169t-69 -117t-81 -69.5t-63 -27.5v-4q14 -6 26 -17q10 -10 22.5 -23.5t23.5 -33.5l141 -281q16 -33 41.5 -40t60.5 -7h27v-227h-141q-41 0 -71 4t-53.5 15.5t-42 33t-36.5 56.5l-187 366 q-23 43 -51 55.5t-86 12.5h-135v-543h-268zM471 772h213q102 0 158.5 59.5t56.5 169.5q0 109 -56.5 167.5t-154.5 58.5h-217v-455z" />
<glyph unicode="S" horiz-adv-x="1124" d="M66 201l151 188q45 -49 100 -86q47 -33 111 -59.5t141 -26.5q41 0 79 11.5t66.5 33t46 53t17.5 74.5q0 61 -50 104.5t-127 81t-165 77.5t-164.5 94.5t-127 132t-50.5 190.5q0 88 37 163t101.5 130t153.5 86t194 31q63 0 139 -15.5t140.5 -50.5t108.5 -89t44 -132v-135 h-242v65q0 25 -16.5 46.5t-44 36t-61.5 22.5t-70 8q-92 0 -152.5 -43t-60.5 -113q0 -61 50 -102t126.5 -77t165 -72.5t165 -91t127 -134.5t50.5 -199q0 -86 -33 -163.5t-94.5 -136t-151.5 -93.5t-205 -35q-123 0 -215 35t-155 78q-74 49 -129 113z" />
<glyph unicode="T" horiz-adv-x="1337" d="M31 1227v96q0 72 28.5 101.5t102.5 29.5h1014q74 0 102.5 -29.5t28.5 -101.5v-96h-504v-1227h-268v1227h-504z" />
<glyph unicode="U" horiz-adv-x="1454" d="M152 1454h133q74 0 106.5 -34t32.5 -105v-789q0 -143 83 -222t220 -79t220 79t83 224v787q0 72 33 105.5t106 33.5h129v-936q0 -121 -40.5 -220t-115.5 -171t-179.5 -112t-233.5 -40t-235.5 40t-181 112t-115.5 171t-41 220z" />
<glyph unicode="V" horiz-adv-x="1400" d="M20 1454h170q78 0 113 -24.5t59 -96.5l279 -811q10 -33 20.5 -69.5t18.5 -69.5q8 -37 16 -76h6q8 39 17 76q8 33 17 69.5t22 69.5l278 811q25 70 59.5 95.5t112.5 25.5h172l-538 -1458h-285z" />
<glyph unicode="W" horiz-adv-x="1957" d="M18 1454h146q78 0 121 -23.5t59 -95.5l201 -868q6 -31 10 -58.5t8 -50.5q4 -25 4 -45h4q0 20 7 45q4 23 10 49.5t16 59.5l264 983h228l252 -983q8 -33 12 -59.5t8 -49.5q4 -25 6 -45h4q2 20 6 45q4 23 8.5 50.5t12.5 58.5l199 868q16 72 59 95.5t121 23.5h149l-383 -1456 h-309l-221 825q-10 35 -17.5 68t-11.5 57q-6 29 -8 56h-4q-4 -27 -10 -56q-10 -53 -29 -125l-233 -825h-312z" />
<glyph unicode="X" horiz-adv-x="1255" d="M10 0l451 737l-420 717h168q74 0 111.5 -21.5t74.5 -84.5l140 -242q16 -33 33.5 -63.5t29.5 -55.5l29 -57h4q10 29 24 57q12 25 28.5 55.5t35.5 63.5l141 242q37 63 76 84.5t113 21.5h165l-421 -717l452 -737h-301l-225 383q-18 33 -35.5 62.5t-30.5 54.5q-14 27 -26 53 h-4l-27 -53q-12 -25 -27.5 -55.5t-33.5 -61.5l-224 -383h-301z" />
<glyph unicode="Y" horiz-adv-x="1259" d="M-4 1454h162q35 0 61.5 -4t48 -15.5t41 -32t39.5 -54.5l193 -320q18 -33 34.5 -61.5t28.5 -51.5q14 -27 25 -51h4q10 23 24 49q12 23 27.5 52.5t36.5 62.5l190 320q20 35 39 55t41.5 31.5t49 15.5t61.5 4h158l-496 -819v-635h-268v635z" />
<glyph unicode="Z" horiz-adv-x="1204" d="M35 0v170l653 926q23 31 42.5 55.5t35.5 40.5q18 20 33 35v4q-14 -2 -31 -2q-14 -2 -34.5 -2h-45.5h-641v88q0 72 33 105.5t106 33.5h944v-168l-653 -928q-23 -33 -42 -56t-36 -40q-18 -20 -32 -35v-4q14 0 30 2q14 0 34 1t46 1h684v-88q0 -74 -32.5 -106.5t-106.5 -32.5 h-987z" />
<glyph unicode="[" horiz-adv-x="720" d="M188 -55v1433q0 74 33 107t107 33h264v-189h-137q-45 0 -45 -45v-1245q0 -45 45 -45h137v-189h-264q-74 0 -107 33t-33 107z" />
<glyph unicode="\" horiz-adv-x="745" d="M10 1528h223l523 -1614h-224z" />
<glyph unicode="]" horiz-adv-x="720" d="M129 -6h135q45 0 45 45v1245q0 45 -45 45h-135v189h264q74 0 106.5 -33t32.5 -107v-1433q0 -74 -32.5 -107t-106.5 -33h-264v189z" />
<glyph unicode="^" d="M133 502l412 952h164l411 -952h-225l-268 678l-269 -678h-225z" />
<glyph unicode="_" horiz-adv-x="1169" d="M10 0h1149v-201h-1149v201z" />
<glyph unicode="`" horiz-adv-x="817" d="M147 1829h250l156 -279h-193z" />
<glyph unicode="a" horiz-adv-x="1239" d="M31 522q0 125 35.5 226.5t99 173t153 110.5t193.5 39q86 0 144.5 -20.5t93.5 -44.5q41 -29 65 -64h6q-2 8 -2 19q-2 10 -2 20v25v65h264v-807q0 -47 47 -47h80v-219h-241q-72 0 -102.5 29.5t-30.5 78.5v37h-5q-29 -49 -73 -86q-39 -33 -101.5 -58.5t-154.5 -25.5 q-106 0 -193.5 40t-149 113t-94 173t-32.5 223zM297 522q0 -150 72.5 -239.5t189.5 -89.5q51 0 99.5 19t85 59t59 102.5t22.5 150.5q0 61 -16 118.5t-49 104t-82 74t-117 27.5q-55 0 -103 -22.5t-84 -63.5t-56.5 -102.5t-20.5 -137.5z" />
<glyph unicode="b" horiz-adv-x="1165" d="M61 0v1454h121q139 0 140 -139v-303q0 -20 -1.5 -35.5t-1.5 -28.5q-2 -14 -2 -24h5q29 39 73 71q39 29 97.5 51.5t142.5 22.5q106 0 191 -40t145.5 -112.5t93.5 -173t33 -221.5q0 -125 -36 -225t-100.5 -172t-151.5 -111t-192 -39q-82 0 -140 22.5t-97 51.5 q-45 33 -74 74h-4q0 -10 2 -21q0 -10 1 -21t1 -28v-53h-246zM313 516q0 -61 16.5 -118.5t48.5 -102.5t81 -72.5t114 -27.5q53 0 100.5 21.5t83.5 62t57.5 101t21.5 138.5q0 150 -72 239t-189 89q-51 0 -98 -19.5t-84 -59.5t-58.5 -102.5t-21.5 -148.5z" />
<glyph unicode="c" horiz-adv-x="1101" d="M66 522q0 111 38.5 210t112.5 174t179.5 119t240.5 44q51 0 116.5 -11t124 -39t98.5 -73t40 -112v-123h-230v57q0 20 -14 36.5t-36.5 26t-48 14.5t-50.5 5q-68 0 -124 -24.5t-98 -67.5t-64.5 -103.5t-22.5 -130.5q0 -80 27.5 -140t72.5 -100t103.5 -60.5t121.5 -20.5 q66 0 123.5 21.5t97.5 47.5q49 31 89 72l108 -180q-47 -53 -113 -94q-55 -35 -138 -65t-189 -30q-129 0 -233.5 43t-178.5 117t-113.5 173t-39.5 214z" />
<glyph unicode="d" horiz-adv-x="1273" d="M66 522q0 125 35.5 225.5t98 172t149.5 110.5t192 39q86 0 143 -20.5t92 -42.5q41 -29 66 -64h4q-2 10 -2 19v43l-2 450h123q139 0 139 -139v-1051q0 -45 45 -45h80v-219h-240q-72 0 -100.5 29.5t-28.5 76.5v39h-4q-29 -49 -74 -86q-39 -33 -100 -58.5t-152 -25.5 q-106 0 -192 40t-146.5 112t-93 173t-32.5 222zM330 522q0 -150 70.5 -238.5t187.5 -88.5q51 0 98 19t84 59t58.5 102.5t21.5 148.5q0 61 -15.5 118.5t-48 103t-81 73t-113.5 27.5q-53 0 -101.5 -21.5t-84 -62.5t-56 -101.5t-20.5 -138.5z" />
<glyph unicode="e" horiz-adv-x="1140" d="M66 522q0 121 38.5 221.5t108.5 173t168 112.5t215 40q113 0 199 -39t144 -105.5t89 -156.5t31 -195q0 -12 -1 -27.5t-3 -31.5q-2 -18 -2 -37h-721q16 -139 105 -209.5t208 -70.5q63 0 115.5 17t93.5 40q45 25 84 59l109 -180q-49 -45 -113 -80q-53 -29 -131 -53.5 t-176 -24.5q-129 0 -233.5 44t-177.5 119t-111.5 174t-38.5 210zM340 657h453q-4 94 -60.5 152.5t-136.5 58.5q-100 0 -167 -56t-89 -155z" />
<glyph unicode="f" horiz-adv-x="706" d="M41 838v206h129v31q0 129 46 205t112.5 117t139.5 53t128 12q20 0 35.5 -1t27.5 -3t25 -2v-221q-6 0 -14 2q-8 0 -18.5 1t-20.5 1q-29 0 -64 -5t-65.5 -22.5t-51 -51.5t-20.5 -91v-25h223v-206h-223v-838h-260v838h-129z" />
<glyph unicode="g" horiz-adv-x="1253" d="M66 549q0 106 29.5 201.5t88 166t145.5 111.5t199 41q92 0 152.5 -22.5t99.5 -51.5q43 -33 70 -73h4v26q0 35 26.5 65.5t88.5 30.5h241v-221h-80q-45 0 -45 -41v-719q0 -135 -48 -228t-125.5 -152.5t-176 -86t-200.5 -26.5q-98 0 -196.5 24.5t-174.5 65.5l80 205 q37 -20 84 -35q39 -14 92 -24.5t112 -10.5t112.5 13.5t94.5 44t64.5 79t23.5 119.5v49v37q0 8 2 19h-4q-47 -66 -116.5 -101t-173.5 -35q-113 0 -200 42t-147.5 115t-91 168t-30.5 204zM330 557q0 -137 66.5 -227t193.5 -90q47 0 91 15t78 50t54.5 94.5t20.5 147.5 t-20.5 146.5t-56.5 93t-83 48t-101 13.5q-119 0 -181 -79t-62 -212z" />
<glyph unicode="h" horiz-adv-x="1206" d="M51 1454h127q139 0 139 -137v-367q0 -20 -1 -35.5t-1 -27.5q-2 -14 -2 -25h4q18 37 51 75t79.5 66.5t103.5 47t125 18.5q176 0 270 -94t94 -303v-408q0 -45 45 -45h82v-219h-247q-72 0 -105 33t-33 106v479q0 96 -33.5 154.5t-132.5 58.5q-104 0 -179 -60t-103 -157 q-10 -31 -13.5 -64.5t-3.5 -70.5v-479h-260z" />
<glyph unicode="i" horiz-adv-x="612" d="M51 823v221h248q72 0 104.5 -33.5t32.5 -105.5v-641q0 -45 45 -45h82v-219h-248q-72 0 -104.5 33t-32.5 106v639q0 45 -45 45h-82zM190 1214v240h226v-240h-226z" />
<glyph unicode="j" horiz-adv-x="624" d="M-39 -199q4 -2 12 -2q8 -2 33 -2q27 0 63.5 6.5t68.5 26.5t54.5 58t22.5 102v788q0 45 -45 45h-82v221h248q74 0 106.5 -33.5t32.5 -105.5v-936q0 -131 -48 -208.5t-116.5 -118.5t-143.5 -53.5t-128 -12.5h-32.5t-24.5 2q-12 2 -21 4v219zM225 1214v240h228v-240h-228z " />
<glyph unicode="k" horiz-adv-x="1052" d="M80 1454h123q72 0 105.5 -23.5t33.5 -95.5v-659h78q25 0 53.5 7t44.5 32l213 329h289l-264 -393q-31 -45 -56 -65q-12 -10 -22 -17v-4q10 -6 22 -16q10 -10 23.5 -25.5t28.5 -40.5l118 -225q12 -23 31 -31t55 -8h70v-219h-192q-66 0 -100 16.5t-64 73.5l-174 328 q-16 29 -44 34t-53 5h-57v-457h-260z" />
<glyph unicode="l" horiz-adv-x="501" d="M70 139v1315h120q139 0 140 -139v-1051q0 -45 45 -45h80v-219h-246q-74 0 -106.5 33t-32.5 106z" />
<glyph unicode="m" horiz-adv-x="1931" d="M43 823v221h240q70 0 103.5 -30.5t33.5 -85.5v-31q0 -10 -1 -17.5t-1 -13.5v-14h4q18 39 50 78t76 69.5t97 50t115 19.5q238 0 305 -215h4q20 43 55 82t81 68.5t102.5 47t117.5 17.5q164 0 253 -95t89 -302v-408q0 -45 45 -45h80v-219h-245q-74 0 -107 33t-33 106v484 q0 45 -5 82.5t-20.5 65.5t-44 44t-73.5 16q-98 0 -162.5 -70.5t-87.5 -168.5q-10 -31 -13 -63.5t-3 -69.5v-459h-260v623q0 43 -4.5 80.5t-19.5 66.5t-43 45t-75 16q-98 0 -162.5 -70.5t-89.5 -170.5q-16 -66 -16 -131v-459h-258v778q0 45 -45 45h-82z" />
<glyph unicode="n" horiz-adv-x="1316" d="M43 823v221h240q70 0 103.5 -30.5t33.5 -85.5v-31q0 -10 -1 -17.5t-1 -13.5q-2 -8 -2 -14h4q16 33 47 71t76 70.5t105.5 54t139.5 21.5q174 0 269.5 -94t95.5 -303v-408q0 -45 45 -45h82v-219h-248q-74 0 -106.5 33t-32.5 106v479q0 96 -33 154.5t-131 58.5 q-104 0 -178 -59t-102 -154q-20 -61 -21 -139v-479h-258v778q0 45 -45 45h-82z" />
<glyph unicode="o" horiz-adv-x="1275" d="M66 522q0 119 45 220.5t121.5 173t181 112.5t223.5 41t224.5 -41t182 -112.5t121.5 -173t45 -220.5q0 -121 -45 -221t-121.5 -173t-182 -113t-224.5 -40t-223.5 40t-181 113t-121.5 173t-45 221zM328 522q0 -74 24.5 -133t66.5 -102t98 -66.5t120 -23.5q63 0 119.5 23.5 t99.5 66.5t67.5 102.5t24.5 132.5q0 72 -24.5 132.5t-67.5 103.5t-99.5 66.5t-119.5 23.5t-119.5 -23.5t-98.5 -66.5t-66.5 -103.5t-24.5 -132.5z" />
<glyph unicode="p" horiz-adv-x="1271" d="M43 823v221h231q72 0 102 -28.5t30 -71.5v-41h4q27 45 73 82q41 31 103.5 57.5t154.5 26.5q106 0 192.5 -40t147 -112.5t93 -173t32.5 -221.5q0 -125 -35.5 -225t-100 -172t-153 -111t-190.5 -39q-78 0 -134 20.5t-93 47.5q-43 31 -72 70h-4q0 -10 2 -25q0 -12 1 -28.5 t1 -36.5v-433h-258v1188q0 45 -45 45h-82zM422 516q0 -61 16.5 -118.5t48 -102.5t79.5 -72.5t114 -27.5q53 0 101 21.5t84 62t57.5 101t21.5 138.5q0 150 -71.5 239t-188.5 89q-51 0 -98 -19.5t-84 -59.5t-58.5 -102.5t-21.5 -148.5z" />
<glyph unicode="q" horiz-adv-x="1273" d="M68 522q0 125 34.5 225.5t98 172t149.5 110.5t191 39q90 0 150.5 -24.5t99.5 -53.5q45 -35 73 -76h4v37q0 41 31 66.5t102 25.5h230v-221h-82q-45 0 -45 -45v-1188h-260v443v36.5t2 28.5q0 14 2 25h-4q-29 -41 -72 -74q-39 -29 -97.5 -51.5t-144.5 -22.5q-106 0 -191 40 t-145.5 112t-93 173t-32.5 222zM330 522q0 -150 71.5 -238.5t188.5 -88.5q51 0 98 19t84 59t58.5 102.5t21.5 148.5q0 61 -16.5 118.5t-48 103t-81 73t-114.5 27.5q-53 0 -100.5 -21.5t-83 -62.5t-57 -101.5t-21.5 -138.5z" />
<glyph unicode="r" horiz-adv-x="843" d="M43 823v221h238q139 0 139 -126v-62q0 -16 -1 -26.5t-1 -20.5q-2 -10 -2 -18h4q18 55 49 104t74 86t96 57.5t113 20.5q8 0 17 -1t15 -1q8 -2 15 -2v-256q-10 0 -19 2q-10 0 -20 1t-25 1q-41 0 -84 -12.5t-82 -39t-69.5 -68.5t-48.5 -99q-23 -80 -23 -170v-414h-258v778 q0 45 -45 45h-82z" />
<glyph unicode="s" horiz-adv-x="958" d="M51 162l123 170q39 -43 88 -78q41 -29 98.5 -52.5t124.5 -23.5q59 0 100.5 24.5t41.5 78.5q0 37 -41 63.5t-102.5 52t-132 54t-132 70.5t-102.5 100.5t-41 142.5q0 78 32.5 135t88 95t129 56.5t155.5 18.5q53 0 117 -10t119 -35t93 -67t38 -105v-109h-230v52q0 37 -44 55 t-87 18q-70 0 -112.5 -23.5t-42.5 -70.5q0 -41 41 -68.5t102.5 -51t134 -50t134 -66.5t102.5 -98.5t41 -144.5q0 -74 -31 -133.5t-85 -100.5t-127 -63.5t-159 -22.5q-109 0 -190.5 29t-134.5 64q-66 41 -109 94z" />
<glyph unicode="t" horiz-adv-x="757" d="M39 838v206h141v285h254v-285h238v-206h-238v-422q0 -66 22.5 -104t54.5 -59.5t67.5 -27.5t62.5 -6t35 2q8 0 12 2v-227q-10 -2 -22 -4q-10 -2 -25.5 -2h-32.5q-55 0 -130 12t-142.5 53t-114.5 119t-47 209v455h-135z" />
<glyph unicode="u" horiz-adv-x="1306" d="M39 823v221h248q72 0 104.5 -32.5t32.5 -104.5v-481q0 -96 32.5 -154.5t129.5 -58.5q70 0 125 28.5t92 78t56.5 113t19.5 132.5v479h260v-780q0 -45 45 -45h82v-219h-240q-68 0 -102.5 30.5t-34.5 86.5v28v33q0 8 2 15h-4q-18 -41 -52 -80t-80 -70t-103.5 -49.5 t-125.5 -18.5q-168 0 -264 92.5t-96 305.5v405q0 45 -45 45h-82z" />
<glyph unicode="v" horiz-adv-x="1116" d="M25 1044h149q66 0 99.5 -22.5t54.5 -75.5l196 -549q8 -23 16.5 -49t12.5 -49l10 -51h4l11 51q4 23 11 49.5t15 48.5l197 549q20 53 55 75.5t98 22.5h140l-381 -1044h-310z" />
<glyph unicode="w" horiz-adv-x="1648" d="M16 1044h154q66 0 98.5 -23.5t48.5 -82.5l154 -580q4 -23 8 -41t8 -34q4 -18 5 -35h4q2 16 6 35q4 16 8 34.5t10 40.5l193 682h229l195 -682q6 -23 9 -41t7 -34q4 -18 6 -35h4q0 16 4 35q4 16 7.5 34.5t9.5 40.5l151 580q16 59 49 82.5t99 23.5h153l-311 -1044h-293 l-178 596q-6 20 -10 40.5t-8 37.5q-4 18 -7 35h-4q-4 -16 -8 -35q-4 -16 -8 -37t-10 -41l-176 -596h-295z" />
<glyph unicode="x" horiz-adv-x="1048" d="M23 0l339 528l-327 516h182q63 0 99 -19t71 -79l102 -172q4 -10 11.5 -21.5t11.5 -21.5q6 -12 10 -24h4q4 12 11 24q4 10 10 21.5t12 21.5l103 172q35 59 69.5 78.5t99.5 19.5h181l-328 -516l342 -528h-289l-182 291q-6 8 -11 16t-9 19q-6 8 -9 20h-4q-4 -10 -10 -18 q-4 -8 -10 -18.5t-10 -18.5l-181 -291h-288z" />
<glyph unicode="y" horiz-adv-x="1132" d="M2 -324l100 185q20 -20 43 -37q20 -14 47 -24.5t60 -10.5q53 0 98 33t74 100l35 80l-434 1042h172q55 0 85.5 -22.5t51.5 -75.5l205 -522q16 -43 26 -90q6 -25 10 -49h5q4 25 10 49q4 23 10 46t14 44l179 522q18 53 52 75.5t87 22.5h176l-465 -1202 q-55 -141 -157.5 -206.5t-219.5 -65.5q-61 0 -110.5 16.5t-83.5 36.5q-39 23 -70 53z" />
<glyph unicode="z" horiz-adv-x="1046" d="M55 0v139l482 588q16 23 32.5 40t28.5 30l27 26v4q-10 -2 -25 -2q-12 -2 -29.5 -2h-42.5h-469v82q0 72 33 105.5t107 33.5h766v-141l-482 -588q-18 -23 -33.5 -40t-27.5 -29l-27 -27v-4q10 0 25 2q12 2 29.5 3t44.5 1l510 -2v-80q0 -74 -33 -106.5t-105 -32.5h-811z" />
<glyph unicode="{" horiz-adv-x="720" d="M49 557v227q49 6 86 31q33 23 60.5 66t27.5 120v177q0 117 40 185.5t97.5 104t120 46t105.5 10.5q14 0 24.5 -1t20.5 -1h18v-193h-10q-4 0 -11 1t-16 1q-20 0 -48.5 -5t-55.5 -23.5t-45.5 -53.5t-18.5 -92v-223q0 -78 -26.5 -128t-57.5 -79q-37 -35 -84 -53v-4 q47 -14 84 -49q31 -29 57.5 -80.5t26.5 -128.5v-246q0 -59 18.5 -94t45.5 -52.5t55.5 -22.5t48.5 -5h27q6 0 10 2v-193q-10 -2 -18 -2q-10 -2 -20.5 -2h-24.5q-43 0 -105.5 10.5t-120 46t-97.5 105.5t-40 186v199q0 78 -27.5 119t-60.5 63q-37 23 -86 31z" />
<glyph unicode="|" horiz-adv-x="638" d="M209 -330v1960h221v-1960h-221z" />
<glyph unicode="}" horiz-adv-x="720" d="M72 -6q4 -2 10 -2h27q20 0 48.5 5t54.5 22.5t44 52t18 94.5v246q0 78 26 129t58 80q37 35 86 49v4q-49 18 -86 53q-33 29 -58.5 79t-25.5 128v223q0 57 -18 92t-44 53.5t-54.5 23.5t-48.5 5q-8 0 -15.5 -1t-11.5 -1h-10v193h18q8 0 19.5 1t25.5 1q43 0 105.5 -10.5 t120 -46t97.5 -104.5t40 -185v-177q0 -78 26.5 -120.5t59.5 -65.5q37 -25 88 -31v-227q-51 -8 -88 -31q-33 -23 -59.5 -63.5t-26.5 -118.5v-199q0 -117 -40 -186.5t-97.5 -105t-120 -46t-105.5 -10.5h-25.5t-19.5 2q-10 0 -18 2v193z" />
<glyph unicode="~" d="M115 408q0 190 82 281t233 91q76 0 126 -28.5t88 -64.5t75 -64.5t88 -28.5q68 0 97.5 54t29.5 124h205q0 -190 -81 -281.5t-233 -91.5q-78 0 -127 29t-87 63.5t-74.5 63.5t-87.5 29q-68 0 -97.5 -53.5t-29.5 -122.5h-207z" />
<glyph unicode="&#xa1;" horiz-adv-x="679" d="M205 -410l22 1033h228l20 -1033h-270zM215 801v241h250v-241h-250z" />
<glyph unicode="&#xa2;" horiz-adv-x="1198" d="M113 727q0 111 30.5 208t86 174t133 128t174.5 68v223h182v-223q135 -25 233.5 -113t145.5 -219l-234 -90q-29 76 -86 129t-143 53q-57 0 -105.5 -25.5t-82 -69.5t-53 -106.5t-19.5 -136.5q0 -154 69.5 -246t190.5 -92q86 0 143.5 52.5t85.5 129.5l234 -90 q-23 -55 -56.5 -110.5t-81 -100.5t-107.5 -77.5t-134 -40.5v-228h-182v228q-96 16 -174 66t-133.5 127t-86 174t-30.5 208z" />
<glyph unicode="&#xa3;" horiz-adv-x="1200" d="M96 0v227h119v410h-90v178h90v248q0 90 35 167t97.5 132t147.5 86t187 31q82 0 149.5 -22.5t114.5 -51.5q55 -33 101 -74l-150 -180q-29 23 -63 43q-29 16 -67 30.5t-81 14.5q-92 0 -147.5 -53t-55.5 -131v-240h363v-178h-363v-410h631v-88q0 -74 -32.5 -106.5 t-104.5 -32.5h-881z" />
<glyph unicode="&#xa5;" horiz-adv-x="1271" d="M27 1454h133q70 0 112.5 -19.5t83.5 -86.5l191 -320q18 -33 34.5 -61.5t28.5 -51.5q14 -25 25 -47h4q10 23 25 47q12 23 27.5 51.5t35.5 61.5l191 320q41 68 81.5 87t112.5 19h133l-317 -573v-4h168v-156h-271l-55 -86v-82h326v-156h-326v-397h-268v397h-328v156h328v82 l-56 86h-274v156h172v4z" />
<glyph unicode="&#xa7;" horiz-adv-x="1030" d="M125 -2l111 176q29 -25 65 -45q31 -16 74 -30.5t92 -14.5q86 0 148.5 49t62.5 158q0 49 -19 117l-137 661h205l145 -704q6 -31 10.5 -60t4.5 -57q0 -80 -28 -148.5t-81 -119t-132 -79t-179 -28.5q-82 0 -144.5 19.5t-107.5 41.5q-53 27 -90 64zM164 1104q0 80 27.5 148.5 t81 118.5t131 79t180.5 29q80 0 143.5 -20.5t108.5 -43.5q53 -29 90 -63l-117 -166q-29 20 -64 39q-29 16 -70.5 28.5t-88.5 12.5q-90 0 -150.5 -45t-60.5 -148q0 -47 14 -102l141 -688h-202l-150 704q-6 29 -10 58.5t-4 58.5z" />
<glyph unicode="&#xa8;" horiz-adv-x="1042" d="M260 1591v238h180v-238h-180zM627 1591v238h182v-238h-182z" />
<glyph unicode="&#xa9;" horiz-adv-x="1599" d="M66 727q0 156 57 293t156.5 238.5t232.5 160t285 58.5q154 0 288 -58.5t234 -160t157.5 -238.5t57.5 -293t-57.5 -293t-157.5 -238.5t-234.5 -161t-287.5 -59.5q-152 0 -285 59.5t-232.5 161t-156.5 238.5t-57 293zM248 727q0 -123 42 -229.5t115.5 -186.5t174 -125 t217.5 -45q119 0 220 45t176 125t118 186.5t43 229.5t-43 229.5t-118 185.5t-176.5 124t-219.5 45q-117 0 -217.5 -45t-174 -124t-115.5 -185.5t-42 -229.5zM424 723q0 82 27.5 154.5t79 127t122 86t154.5 31.5q92 0 155.5 -33.5t102.5 -74.5q45 -47 74 -107l-156 -73 q-16 33 -41 59q-23 23 -54.5 41t-74.5 18q-92 0 -146.5 -66.5t-54.5 -162.5q0 -98 52.5 -163.5t148.5 -65.5q45 0 76 18t53 41q23 25 41 59l156 -71q-29 -61 -74 -109q-39 -41 -102.5 -74.5t-155.5 -33.5q-84 0 -154.5 31.5t-122 86t-79 127t-27.5 154.5z" />
<glyph unicode="&#xaa;" horiz-adv-x="851" d="M100 993q0 72 40 115t97.5 65.5t121 29.5t108.5 7h29q-4 66 -25.5 89.5t-75.5 23.5q-16 0 -42.5 -5t-26.5 -26v-30h-176v86q0 41 28.5 65.5t68.5 38.5t82 18.5t66 4.5q82 0 137.5 -21.5t89 -57.5t47 -85t13.5 -105v-221q0 -25 23 -24h53v-164h-140q-39 0 -67.5 15 t-36.5 56l-2 19h-4q-18 -29 -45 -51q-23 -20 -57.5 -36t-81.5 -16q-43 0 -83 13.5t-72 40t-50.5 65.5t-18.5 90zM102 545v139h660v-139h-660zM291 1001q0 -29 18.5 -49t59.5 -20q59 0 91 47t38 111h-21q-27 0 -58.5 -3.5t-60 -12.5t-48 -26.5t-19.5 -46.5z" />
<glyph unicode="&#xab;" horiz-adv-x="1257" d="M94 578l336 421h248l-336 -421l336 -420h-248zM553 578l336 421h248l-336 -421l336 -420h-248z" />
<glyph unicode="&#xac;" d="M135 694v201h1000v-602h-209v401h-791z" />
<glyph unicode="&#xad;" horiz-adv-x="882" d="M133 471v227h617v-227h-617z" />
<glyph unicode="&#xae;" horiz-adv-x="1599" d="M66 727q0 156 57 293t156.5 238.5t232.5 160t285 58.5q154 0 288 -58.5t234 -160t157.5 -238.5t57.5 -293t-57.5 -293t-157.5 -238.5t-234.5 -161t-287.5 -59.5q-152 0 -285 59.5t-232.5 161t-156.5 238.5t-57 293zM248 727q0 -123 42 -229.5t115.5 -186.5t174 -125 t217.5 -45q119 0 220 45t176 125t118 186.5t43 229.5t-43 229.5t-118 185.5t-176.5 124t-219.5 45q-117 0 -217.5 -45t-174 -124t-115.5 -185.5t-42 -229.5zM541 356v750h311q111 0 178.5 -64.5t67.5 -173.5q0 -43 -13.5 -76.5t-34 -58t-43 -39t-42.5 -20.5v-4q8 -2 16 -8 q6 -4 14.5 -12.5t16.5 -20.5l65 -123q10 -18 22.5 -21.5t22.5 -3.5h23v-125h-98q-41 0 -65 10.5t-42 45.5l-100 188q-12 23 -28.5 28t-39.5 5h-57v-277h-174zM715 756h96q51 0 80 29.5t29 82.5t-29 82t-78 29h-98v-223z" />
<glyph unicode="&#xaf;" horiz-adv-x="956" d="M213 1604v172h537v-172h-537z" />
<glyph unicode="&#xb0;" horiz-adv-x="839" d="M86 1157q0 66 25.5 125t70.5 103.5t106.5 70t131.5 25.5t130 -25.5t105 -70t72 -103.5t27 -125q0 -68 -27 -126t-72 -102t-105 -68.5t-130 -24.5t-131.5 24.5t-106.5 68.5t-70.5 102.5t-25.5 125.5zM285 1157q0 -57 39 -96t96 -39t97 39t40 96q0 55 -40 95t-97 40 t-96 -40t-39 -95z" />
<glyph unicode="&#xb1;" d="M86 483v203h442v485h211v-485h443v-203h-443v-483h-211v483h-442zM115 -174h1040v-201h-1040v201z" />
<glyph unicode="&#xb2;" horiz-adv-x="894" d="M106 686q0 66 23 115t58.5 87t80.5 67.5t88 54.5q70 39 122 81t52 105q0 45 -29.5 70.5t-76.5 25.5t-72.5 -19.5t-25.5 -41.5v-45h-181v102q0 49 29 83t72 56.5t92 32.5t88 10q61 0 116.5 -18t96.5 -52t65.5 -85t24.5 -115q0 -70 -25.5 -121t-65.5 -89t-87 -66.5 t-92 -53.5q-61 -33 -106.5 -65.5t-45.5 -75.5q0 -12 23 -12l438 2v-72q0 -100 -100 -100h-459q-59 0 -81 25.5t-22 113.5z" />
<glyph unicode="&#xb3;" horiz-adv-x="894" d="M111 713l135 121q25 -35 57 -62q27 -23 63.5 -41t79.5 -18q55 0 93.5 32.5t38.5 83.5q0 49 -39 79t-101 30h-71l-27 109l147 198q6 8 13.5 16.5t13.5 14.5q8 8 14 12v4q-10 -2 -20 -2q-10 -2 -20.5 -2h-22.5l-313 2v64q0 55 20.5 77.5t77.5 22.5h504v-133l-189 -234 q98 -20 154.5 -94.5t56.5 -167.5q0 -68 -27.5 -123t-72.5 -93t-104.5 -58.5t-122.5 -20.5q-78 0 -139.5 28t-106.5 63q-53 39 -92 92z" />
<glyph unicode="&#xb4;" horiz-adv-x="827" d="M252 1550l156 279h249l-215 -279h-190z" />
<glyph unicode="&#xb6;" horiz-adv-x="1280" d="M80 975q0 100 38 188t103.5 152.5t153.5 101.5t186 37h625v-227h-436v-1329h-189v596q-98 0 -186 36.5t-153.5 102t-103.5 152.5t-38 190zM877 -102v1216h190v-1216h-190z" />
<glyph unicode="&#xb7;" horiz-adv-x="542" d="M145 469v258h252v-258h-252z" />
<glyph unicode="&#xb8;" horiz-adv-x="860" d="M231 -268q12 -4 27 -8q12 -4 28.5 -6.5t35.5 -2.5q37 0 62.5 12.5t25.5 45.5q0 29 -29 42t-70 13q-8 0 -15 -1t-13 -1q-8 -2 -15 -2l64 227l119 -26v-15l-21 -100q61 -8 105.5 -46t44.5 -110q0 -51 -19.5 -85t-50.5 -55.5t-71 -30.5t-81 -9q-57 0 -90 6q-20 4 -37 8v144z " />
<glyph unicode="&#xb9;" horiz-adv-x="894" d="M209 1174q-61 59 0 120l164 160h184v-180v-727h-197v647v59h-4q-2 -6 -8 -14q-10 -16 -31 -37l-69 -67z" />
<glyph unicode="&#xba;" horiz-adv-x="931" d="M106 1133q0 76 29 138t77 107t113.5 71t139.5 26t139.5 -26t114.5 -71t77.5 -107.5t28.5 -137.5q0 -76 -28.5 -139.5t-77.5 -109.5t-114.5 -72t-139.5 -26t-139.5 26t-113.5 72t-77 109.5t-29 139.5zM137 545v139h660v-139h-660zM293 1133q0 -82 50 -132.5t122 -50.5 t123 50.5t51 132.5q0 80 -51 130t-123 50t-122 -50.5t-50 -129.5z" />
<glyph unicode="&#xbb;" horiz-adv-x="1257" d="M119 158l336 420l-336 421h248l335 -421l-335 -420h-248zM580 158l335 420l-335 421h247l336 -421l-336 -420h-247z" />
<glyph unicode="&#xbc;" horiz-adv-x="1931" d="M209 1174q-61 59 0 120l164 160h184v-180v-727h-197v647v59h-4q-2 -6 -8 -14q-10 -16 -31 -37l-69 -67zM614 0l568 1454h202l-567 -1454h-203zM1114 229v105l377 579h199v-542h26h27q88 0 88 -88v-54h-141v-231h-166v231h-410zM1288 371h82h154v254v33.5t2 33.5 q0 18 2 35l-15 -29q-6 -12 -15 -26.5t-17 -26.5l-148 -213q-16 -27 -30 -45q-8 -8 -15 -16z" />
<glyph unicode="&#xbd;" horiz-adv-x="1931" d="M209 1174q-61 59 0 120l164 160h184v-180v-727h-197v647v59h-4q-2 -6 -8 -14q-10 -16 -31 -37l-69 -67zM590 0l567 1454h201l-567 -1454h-201zM1161 141q0 66 22.5 115t58.5 87t81 67.5t90 54.5q33 18 64.5 37.5t56.5 42t39 48t14 58.5q0 43 -29.5 68.5t-78.5 25.5 q-45 0 -71 -18t-26 -41v-47h-180v102q0 49 29 84t72 57.5t92 33t88 10.5q61 0 116.5 -18.5t96.5 -53.5t65.5 -86t24.5 -115q0 -70 -25.5 -120t-65.5 -87.5t-88 -66.5t-94 -53q-59 -33 -104 -67t-45 -77q0 -12 22 -12l439 2v-72q0 -100 -103 -100h-456q-29 0 -49.5 5 t-33 20.5t-17.5 43t-5 72.5z" />
<glyph unicode="&#xbe;" horiz-adv-x="1931" d="M111 713l135 121q25 -35 57 -62q27 -23 63.5 -41t79.5 -18q55 0 93.5 32.5t38.5 83.5q0 49 -39 79t-101 30h-71l-27 109l147 198q6 8 13.5 16.5t13.5 14.5q8 8 14 12v4q-10 -2 -20 -2q-10 -2 -20.5 -2h-22.5l-313 2v64q0 55 20.5 77.5t77.5 22.5h504v-133l-189 -234 q98 -20 154.5 -94.5t56.5 -167.5q0 -68 -27.5 -123t-72.5 -93t-104.5 -58.5t-122.5 -20.5q-78 0 -139.5 28t-106.5 63q-53 39 -92 92zM608 0l568 1454h200l-565 -1454h-203zM1114 229v105l377 579h199v-542h26h27q88 0 88 -88v-54h-141v-231h-166v231h-410zM1288 371h82h154 v254v33.5t2 33.5q0 18 2 35l-15 -29q-6 -12 -15 -26.5t-17 -26.5l-148 -213q-16 -27 -30 -45q-8 -8 -15 -16z" />
<glyph unicode="&#xbf;" horiz-adv-x="974" d="M68 -45q0 84 26.5 145.5t66.5 109.5t86 87t86 78t66.5 81t26.5 97v72h250v-90q0 -74 -24.5 -129.5t-62.5 -100.5t-81 -82t-81 -73.5t-62.5 -77.5t-24.5 -92q0 -72 57.5 -122.5t141.5 -50.5q43 0 83 13.5t68 29.5q35 20 66 46l145 -181q-45 -41 -102 -73 q-49 -29 -120 -50.5t-163 -21.5q-86 0 -167 25.5t-143.5 74.5t-100 121t-37.5 164zM426 803v241h250v-241h-250z" />
<glyph unicode="&#xc0;" horiz-adv-x="1380" d="M23 0l528 1454h280l527 -1454h-160q-39 0 -65.5 5t-46 19.5t-34 37t-26.5 57.5l-90 254h-492l-90 -254q-25 -70 -59.5 -94.5t-110.5 -24.5h-161zM377 1829h250l155 -279h-192zM506 594h368l-124 364q-10 29 -20.5 67t-18.5 73q-8 39 -19 78h-4q-10 -39 -18 -78 q-8 -35 -18.5 -73t-20.5 -67z" />
<glyph unicode="&#xc1;" horiz-adv-x="1380" d="M23 0l528 1454h280l527 -1454h-160q-39 0 -65.5 5t-46 19.5t-34 37t-26.5 57.5l-90 254h-492l-90 -254q-25 -70 -59.5 -94.5t-110.5 -24.5h-161zM506 594h368l-124 364q-10 29 -20.5 67t-18.5 73q-8 39 -19 78h-4q-10 -39 -18 -78q-8 -35 -18.5 -73t-20.5 -67zM590 1550 l155 279h250l-215 -279h-190z" />
<glyph unicode="&#xc2;" horiz-adv-x="1380" d="M23 0l528 1454h280l527 -1454h-160q-39 0 -65.5 5t-46 19.5t-34 37t-26.5 57.5l-90 254h-492l-90 -254q-25 -70 -59.5 -94.5t-110.5 -24.5h-161zM393 1550l187 279h223l188 -279h-194l-103 166h-4l-104 -166h-193zM506 594h368l-124 364q-10 29 -20.5 67t-18.5 73 q-8 39 -19 78h-4q-10 -39 -18 -78q-8 -35 -18.5 -73t-20.5 -67z" />
<glyph unicode="&#xc3;" horiz-adv-x="1380" d="M23 0l528 1454h280l527 -1454h-160q-39 0 -65.5 5t-46 19.5t-34 37t-26.5 57.5l-90 254h-492l-90 -254q-25 -70 -59.5 -94.5t-110.5 -24.5h-161zM319 1552q0 281 234 281q53 0 89 -20.5t63.5 -46t52 -46t57.5 -20.5q43 0 63.5 39t20.5 88h162q0 -281 -234 -281 q-53 0 -89 20.5t-63.5 46t-52 46t-57.5 20.5q-43 0 -63.5 -37.5t-20.5 -89.5h-162zM506 594h368l-124 364q-10 29 -20.5 67t-18.5 73q-8 39 -19 78h-4q-10 -39 -18 -78q-8 -35 -18.5 -73t-20.5 -67z" />
<glyph unicode="&#xc4;" horiz-adv-x="1380" d="M23 0q16 57 31.5 102t37 104.5t54 148.5t86 231.5t131 352.5t188.5 515h280q111 -305 188 -515t130 -352.5t86 -231.5t54.5 -148.5t36.5 -104.5t32 -102h-160q-39 0 -65.5 5t-46 19.5t-34 37t-26.5 57.5l-90 254h-492l-90 -254q-25 -70 -59.5 -94.5t-110.5 -24.5h-161z M418 1591v238h180v-238h-180zM506 594h368l-124 364q-10 29 -20.5 67t-18.5 73q-8 39 -19 78h-4q-10 -39 -18 -78q-8 -35 -18.5 -73t-20.5 -67zM784 1591v238h183v-238h-183z" />
<glyph unicode="&#xc5;" horiz-adv-x="1380" d="M23 0q16 57 31.5 102t37 104.5t54 148.5t86 231.5t131 352.5t188.5 515h280q111 -305 188 -515t130 -352.5t86 -231.5t54.5 -148.5t36.5 -104.5t32 -102h-160q-39 0 -65.5 5t-46 19.5t-34 37t-26.5 57.5l-90 254h-492l-90 -254q-25 -70 -59.5 -94.5t-110.5 -24.5h-161z M506 594h368l-124 364q-10 29 -20.5 67t-18.5 73q-8 39 -19 78h-4q-10 -39 -18 -78q-8 -35 -18.5 -73t-20.5 -67zM508 1686q0 80 56.5 120.5t125.5 40.5q70 0 126 -41t56 -120q0 -39 -15 -69t-40.5 -50.5t-58.5 -30.5t-68 -10t-67.5 10t-58 30.5t-41 50.5t-15.5 69z M618 1686q0 -31 20.5 -50.5t51.5 -19.5t51.5 19.5t20.5 50.5q0 33 -20.5 52t-51.5 19t-51.5 -19.5t-20.5 -51.5z" />
<glyph unicode="&#xc6;" horiz-adv-x="1824" d="M23 0l577 1454h367l30 -1454q-78 0 -112.5 30.5t-34.5 108.5v479h-326l-186 -499q-12 -35 -26.5 -57.5t-34 -36t-46 -19.5t-65.5 -6h-143zM610 846h240v381h-96zM846 141v1315h745q141 0 142 -141v-88h-619v-381h471v-228h-471v-346q0 -45 45 -45h432h47q74 0 108 -33.5 t34 -105.5v-88h-402h-391q-76 0 -108.5 33t-32.5 108z" />
<glyph unicode="&#xc7;" horiz-adv-x="1452" d="M61 739q0 158 56.5 293t155 234.5t233.5 156t293 56.5q70 0 165 -16.5t181 -54.5t145.5 -100.5t59.5 -154.5v-162h-244v82q0 39 -29.5 68.5t-74 49t-97.5 29t-100 9.5q-98 0 -182 -34t-147.5 -97.5t-99.5 -154.5t-36 -204q0 -106 36 -200.5t98.5 -164t148.5 -109.5 t184 -40q104 0 186 30t142 64q68 41 118 97l142 -191q-61 -66 -144 -119q-72 -47 -177 -85.5t-243 -43.5l-14 -67q61 -8 105.5 -46t44.5 -110q0 -51 -19.5 -85t-50.5 -55.5t-71 -30.5t-81 -9q-55 0 -88 6q-20 4 -36 8v144q12 -4 26 -8q12 -4 28.5 -6.5t33.5 -2.5 q37 0 63.5 12.5t26.5 45.5q0 29 -29 42t-70 13q-10 0 -17 -1t-13 -1q-8 -2 -13 -2l43 158q-145 16 -264 80.5t-201.5 166t-128 231t-45.5 279.5z" />
<glyph unicode="&#xc8;" horiz-adv-x="1183" d="M150 141v1315h745q141 0 141 -141v-88h-618v-381h471v-228h-471v-346q0 -45 45 -45h432h47q74 0 107.5 -33.5t33.5 -105.5v-88h-401h-391q-76 0 -108.5 33t-32.5 108zM295 1829h250l155 -279h-192z" />
<glyph unicode="&#xc9;" horiz-adv-x="1183" d="M203 141v1315h745q141 0 142 -141v-88h-619v-381h471v-228h-471v-346q0 -45 45 -45h432h47q74 0 108 -33.5t34 -105.5v-88h-402h-391q-76 0 -108.5 33t-32.5 108zM508 1550l156 279h249l-215 -279h-190z" />
<glyph unicode="&#xca;" horiz-adv-x="1142" d="M133 141v1315h746q141 0 141 -141v-88h-619v-381h471v-228h-471v-346q0 -45 45 -45h433h47q74 0 107.5 -33.5t33.5 -105.5v-88h-401h-392q-76 0 -108.5 33t-32.5 108zM268 1550l187 279h223l188 -279h-194l-103 166h-4l-104 -166h-193z" />
<glyph unicode="&#xcb;" horiz-adv-x="1132" d="M150 141v1315h745q141 0 141 -141v-88h-618v-381h471v-228h-471v-346q0 -45 45 -45h432h47q74 0 107.5 -33.5t33.5 -105.5v-88h-401h-391q-76 0 -108.5 33t-32.5 108zM285 1591v238h180v-238h-180zM651 1591v238h183v-238h-183z" />
<glyph unicode="&#xcc;" horiz-adv-x="585" d="M10 1829h250l156 -279h-193zM190 139v336v504v475h129q74 0 107 -34t33 -105v-336v-504v-475h-129q-74 0 -107 34t-33 105z" />
<glyph unicode="&#xcd;" horiz-adv-x="620" d="M170 139v336v504v475h129q74 0 106.5 -34t32.5 -105v-336v-504v-475h-129q-74 0 -106.5 34t-32.5 105zM203 1550l155 279h250l-215 -279h-190z" />
<glyph unicode="&#xce;" horiz-adv-x="618" d="M10 1550l187 279h223l188 -279h-194l-103 166h-4l-104 -166h-193zM176 139v336v504v475h129q74 0 106.5 -34t32.5 -105v-336v-504v-475h-129q-74 0 -106.5 34t-32.5 105z" />
<glyph unicode="&#xcf;" horiz-adv-x="593" d="M20 1591v238h181v-238h-181zM162 139v336v504v475h129q74 0 106.5 -34t32.5 -105v-336v-504v-475h-129q-74 0 -106.5 34t-32.5 105zM387 1591v238h182v-238h-182z" />
<glyph unicode="&#xd0;" horiz-adv-x="1464" d="M104 616v215h99v623h459q168 0 305 -49t233 -141.5t149.5 -227.5t53.5 -307t-53.5 -307t-149.5 -229.5t-233.5 -143.5t-304.5 -49h-320q-74 0 -106.5 33t-32.5 106v477h-99zM471 272q0 -45 45 -45h131q109 0 197 33t150.5 95.5t96 156.5t33.5 217q0 121 -33.5 214 t-97 155.5t-151.5 95.5t-195 33h-176v-396h252v-215h-252v-344z" />
<glyph unicode="&#xd1;" horiz-adv-x="1529" d="M178 0v1454h242l551 -805q23 -33 44 -67.5t38 -65.5q20 -37 39 -72h4q-4 35 -9 72q-4 31 -5 65.5t-1 67.5v666q0 72 33 105.5t107 33.5h129v-1454h-240l-553 803q-23 31 -44 66.5t-38 66.5q-20 37 -39 72h-4q2 -35 6 -72q4 -31 6 -66.5t2 -66.5v-664q0 -74 -32.5 -106.5 t-106.5 -32.5h-129zM410 1552q0 281 233 281q53 0 89 -20.5t63.5 -46t52 -46t57.5 -20.5q43 0 63.5 39t20.5 88h162q0 -281 -233 -281q-53 0 -89 20.5t-64 46t-52.5 46t-57.5 20.5q-43 0 -63.5 -37.5t-20.5 -89.5h-161z" />
<glyph unicode="&#xd2;" horiz-adv-x="1626" d="M61 737q0 156 57.5 291t158 235.5t238.5 158t298 57.5t298 -57.5t238.5 -158t158 -235.5t57.5 -291q0 -160 -57.5 -299t-158 -242.5t-238.5 -162t-298 -58.5t-298 58.5t-238.5 162t-158 242.5t-57.5 299zM340 737q0 -109 37 -203t101.5 -162.5t150.5 -107.5t184 -39 t184 39t150.5 107.5t101.5 163t37 202.5q0 104 -37 194.5t-101.5 156t-150.5 103.5t-184 38t-184 -38t-150.5 -103.5t-101.5 -156t-37 -194.5zM496 1829h249l156 -279h-192z" />
<glyph unicode="&#xd3;" horiz-adv-x="1626" d="M61 737q0 156 57.5 291t158 235.5t238.5 158t298 57.5t298 -57.5t238.5 -158t158 -235.5t57.5 -291q0 -160 -57.5 -299t-158 -242.5t-238.5 -162t-298 -58.5t-298 58.5t-238.5 162t-158 242.5t-57.5 299zM340 737q0 -109 37 -203t101.5 -162.5t150.5 -107.5t184 -39 t184 39t150.5 107.5t101.5 163t37 202.5q0 104 -37 194.5t-101.5 156t-150.5 103.5t-184 38t-184 -38t-150.5 -103.5t-101.5 -156t-37 -194.5zM709 1550l155 279h250l-215 -279h-190z" />
<glyph unicode="&#xd4;" horiz-adv-x="1626" d="M61 737q0 156 57.5 291t158 235.5t238.5 158t298 57.5t298 -57.5t238.5 -158t158 -235.5t57.5 -291q0 -160 -57.5 -299t-158 -242.5t-238.5 -162t-298 -58.5t-298 58.5t-238.5 162t-158 242.5t-57.5 299zM340 737q0 -109 37 -203t101.5 -162.5t150.5 -107.5t184 -39 t184 39t150.5 107.5t101.5 163t37 202.5q0 104 -37 194.5t-101.5 156t-150.5 103.5t-184 38t-184 -38t-150.5 -103.5t-101.5 -156t-37 -194.5zM510 1550l186 279h224l188 -279h-195l-102 166h-4l-105 -166h-192z" />
<glyph unicode="&#xd5;" horiz-adv-x="1626" d="M61 737q0 156 57.5 291t158 235.5t238.5 158t298 57.5t298 -57.5t238.5 -158t158 -235.5t57.5 -291q0 -160 -57.5 -299t-158 -242.5t-238.5 -162t-298 -58.5t-298 58.5t-238.5 162t-158 242.5t-57.5 299zM340 737q0 -109 37 -203t101.5 -162.5t150.5 -107.5t184 -39 t184 39t150.5 107.5t101.5 163t37 202.5q0 104 -37 194.5t-101.5 156t-150.5 103.5t-184 38t-184 -38t-150.5 -103.5t-101.5 -156t-37 -194.5zM436 1552q0 281 234 281q53 0 89 -20.5t63.5 -46t52 -46t57.5 -20.5q43 0 63.5 39t20.5 88h162q0 -281 -234 -281q-53 0 -89 20.5 t-63.5 46t-52 46t-57.5 20.5q-43 0 -63.5 -37.5t-20.5 -89.5h-162z" />
<glyph unicode="&#xd6;" horiz-adv-x="1626" d="M61 737q0 156 57.5 291t158 235.5t238.5 158t298 57.5t298 -57.5t238.5 -158t158 -235.5t57.5 -291q0 -160 -57.5 -299t-158 -242.5t-238.5 -162t-298 -58.5t-298 58.5t-238.5 162t-158 242.5t-57.5 299zM340 737q0 -109 37 -203t101.5 -162.5t150.5 -107.5t184 -39 t184 39t150.5 107.5t101.5 163t37 202.5q0 104 -37 194.5t-101.5 156t-150.5 103.5t-184 38t-184 -38t-150.5 -103.5t-101.5 -156t-37 -194.5zM535 1591v238h180v-238h-180zM901 1591v238h182v-238h-182z" />
<glyph unicode="&#xd7;" d="M94 141l404 445l-404 442l142 143l399 -438l399 438l142 -143l-406 -442l406 -445l-142 -141l-399 438l-399 -438z" />
<glyph unicode="&#xd8;" horiz-adv-x="1628" d="M63 737q0 156 57.5 291t158 235.5t238.5 158t298 57.5q104 0 200.5 -27t180.5 -74l94 129l117 -80l-94 -129q117 -104 185.5 -247.5t68.5 -313.5q0 -160 -57.5 -299t-159 -242.5t-238.5 -162t-297 -58.5q-106 0 -202.5 27t-178.5 74l-94 -129l-117 80l92 131 q-117 104 -184.5 252.5t-67.5 326.5zM342 737q0 -109 36 -200t99 -158l567 788q-51 29 -108 45.5t-121 16.5q-98 0 -184 -38t-150.5 -103.5t-101.5 -155.5t-37 -195zM586 287q100 -61 229 -62q98 0 183 39t149.5 107.5t101.5 163t37 202.5q0 100 -36 186.5t-97 151.5z" />
<glyph unicode="&#xd9;" horiz-adv-x="1433" d="M145 518v936h129q74 0 107 -34t33 -105v-789q0 -143 83 -222t220 -79t220 79t83 224v787q0 72 32.5 105.5t106.5 33.5h129v-936q0 -121 -41 -220t-115.5 -171t-179 -112t-233.5 -40t-235.5 40t-181.5 112t-116 171t-41 220zM406 1829h249l156 -279h-193z" />
<glyph unicode="&#xda;" horiz-adv-x="1439" d="M152 518v936h129q74 0 106.5 -34t32.5 -105v-789q0 -143 83 -222t220 -79t220 79t83 224v787q0 72 33 105.5t106 33.5h129v-936q0 -121 -41 -220t-115.5 -171t-179 -112t-233.5 -40t-235.5 40t-181.5 112t-115.5 171t-40.5 220zM625 1550l155 279h250l-215 -279h-190z " />
<glyph unicode="&#xdb;" horiz-adv-x="1429" d="M141 518v936h129q74 0 107 -34t33 -105v-789q0 -143 82.5 -222t220.5 -79q137 0 220 79t83 224v787q0 72 32.5 105.5t106.5 33.5h129v-936q0 -121 -41 -220t-115.5 -171t-179 -112t-233.5 -40t-235.5 40t-181.5 112t-116 171t-41 220zM416 1550l186 279h223l189 -279 h-195l-102 166h-4l-105 -166h-192z" />
<glyph unicode="&#xdc;" horiz-adv-x="1454" d="M156 518v936h129q74 0 106.5 -34t32.5 -105v-789q0 -143 83 -222t220 -79t220 79t83 224v787q0 72 33 105.5t106 33.5h129v-936q0 -121 -40.5 -220t-115.5 -171t-179.5 -112t-233.5 -40t-235.5 40t-181 112t-115.5 171t-41 220zM455 1591v238h180v-238h-180zM821 1591 v238h183v-238h-183z" />
<glyph unicode="&#xdd;" horiz-adv-x="1259" d="M10 1454h148q35 0 61.5 -4t48 -15.5t41 -32t39.5 -54.5l193 -320q18 -33 34.5 -61.5t28.5 -51.5q14 -27 25 -51h4q10 23 24 49q12 23 27.5 52.5t36.5 62.5l190 320q20 35 39 55t41.5 31.5t49 15.5t61.5 4h149l-487 -819v-635h-268v635zM530 1550l156 279h250l-215 -279 h-191z" />
<glyph unicode="&#xde;" horiz-adv-x="1249" d="M203 0v1454h129q74 0 106.5 -34t32.5 -105v-96h264q102 0 187.5 -34t146.5 -96.5t95 -149.5t34 -194q0 -106 -34 -194t-95 -150.5t-147 -97.5t-189 -35h-262v-268h-268zM471 496h215q115 0 176.5 67.5t61.5 181.5q0 115 -61.5 180.5t-172.5 65.5h-219v-495z" />
<glyph unicode="&#xdf;" horiz-adv-x="1224" d="M154 0v1083q0 96 39.5 170t106.5 124t152 76t175 26q88 0 165.5 -27t135 -75t90.5 -113.5t33 -141.5q0 -68 -29 -114.5t-63.5 -85.5t-63.5 -74t-29 -80q0 -31 24.5 -58.5t61.5 -56t80 -61.5t80 -74t61.5 -93t24.5 -120q0 -84 -30.5 -145.5t-82 -102.5t-118 -61.5 t-138.5 -20.5q-76 0 -131 13.5t-94 29.5q-45 18 -78 43l60 201q29 -18 61 -33q29 -12 66 -22t78 -10q57 0 101 26.5t44 95.5q0 35 -24.5 67t-61.5 61.5t-80 61.5t-80 68.5t-61.5 82t-24.5 102.5q0 59 29 104t63.5 85t63 79t28.5 88q0 53 -43 96t-127 43q-39 0 -75.5 -11 t-65 -34.5t-46 -59.5t-17.5 -87v-926q0 -74 -33 -106.5t-107 -32.5h-120z" />
<glyph unicode="&#xe0;" horiz-adv-x="1234" d="M31 522q0 125 35.5 226.5t99 173t153 110.5t193.5 39q86 0 144.5 -20.5t93.5 -44.5q41 -29 65 -64h6q-2 8 -2 19q-2 10 -2 20v25v65h264v-807q0 -47 47 -47h80v-219h-241q-72 0 -102.5 29.5t-30.5 78.5v37h-5q-29 -49 -73 -86q-39 -33 -101.5 -58.5t-154.5 -25.5 q-106 0 -193.5 40t-149 113t-94 173t-32.5 223zM242 1452h250l155 -278h-192zM297 522q0 -150 72.5 -239.5t189.5 -89.5q51 0 99.5 19t85 59t59 102.5t22.5 150.5q0 61 -16 118.5t-49 104t-82 74t-117 27.5q-55 0 -103 -22.5t-84 -63.5t-56.5 -102.5t-20.5 -137.5z" />
<glyph unicode="&#xe1;" horiz-adv-x="1239" d="M31 522q0 125 35.5 226.5t99 173t153 110.5t193.5 39q86 0 144.5 -20.5t93.5 -44.5q41 -29 65 -64h6q-2 8 -2 19q-2 10 -2 20v25v65h264v-807q0 -47 47 -47h80v-219h-241q-72 0 -102.5 29.5t-30.5 78.5v37h-5q-29 -49 -73 -86q-39 -33 -101.5 -58.5t-154.5 -25.5 q-106 0 -193.5 40t-149 113t-94 173t-32.5 223zM297 522q0 -150 72.5 -239.5t189.5 -89.5q51 0 99.5 19t85 59t59 102.5t22.5 150.5q0 61 -16 118.5t-49 104t-82 74t-117 27.5q-55 0 -103 -22.5t-84 -63.5t-56.5 -102.5t-20.5 -137.5zM455 1174l155 278h250l-215 -278h-190z " />
<glyph unicode="&#xe2;" horiz-adv-x="1234" d="M31 522q0 125 35.5 226.5t99 173t153 110.5t193.5 39q86 0 144.5 -20.5t93.5 -44.5q41 -29 65 -64h6q-2 8 -2 19q-2 10 -2 20v25v65h264v-807q0 -47 47 -47h80v-219h-241q-72 0 -102.5 29.5t-30.5 78.5v37h-5q-29 -49 -73 -86q-39 -33 -101.5 -58.5t-154.5 -25.5 q-106 0 -193.5 40t-149 113t-94 173t-32.5 223zM258 1174l186 278h224l188 -278h-194l-103 165h-4l-104 -165h-193zM297 522q0 -150 72.5 -239.5t189.5 -89.5q51 0 99.5 19t85 59t59 102.5t22.5 150.5q0 61 -16 118.5t-49 104t-82 74t-117 27.5q-55 0 -103 -22.5t-84 -63.5 t-56.5 -102.5t-20.5 -137.5z" />
<glyph unicode="&#xe3;" horiz-adv-x="1234" d="M31 522q0 125 35.5 226.5t99 173t153 110.5t193.5 39q86 0 144.5 -20.5t93.5 -44.5q41 -29 65 -64h6q-2 8 -2 19q-2 10 -2 20v25v65h264v-807q0 -47 47 -47h80v-219h-241q-72 0 -102.5 29.5t-30.5 78.5v37h-5q-29 -49 -73 -86q-39 -33 -101.5 -58.5t-154.5 -25.5 q-106 0 -193.5 40t-149 113t-94 173t-32.5 223zM184 1176q0 281 234 280q53 0 89 -20.5t63.5 -46t52 -46t57.5 -20.5q43 0 63.5 39t20.5 88h162q0 -281 -234 -281q-53 0 -89 20.5t-63.5 46.5t-52 46.5t-57.5 20.5q-43 0 -63.5 -38t-20.5 -89h-162zM297 522 q0 -150 72.5 -239.5t189.5 -89.5q51 0 99.5 19t85 59t59 102.5t22.5 150.5q0 61 -16 118.5t-49 104t-82 74t-117 27.5q-55 0 -103 -22.5t-84 -63.5t-56.5 -102.5t-20.5 -137.5z" />
<glyph unicode="&#xe4;" horiz-adv-x="1234" d="M31 522q0 125 35.5 226.5t99 173t153 110.5t193.5 39q86 0 144.5 -20.5t93.5 -44.5q41 -29 65 -64h6q-2 8 -2 19q-2 10 -2 20v25v65h264v-807q0 -47 47 -47h80v-219h-241q-72 0 -102.5 29.5t-30.5 78.5v37h-5q-29 -49 -73 -86q-39 -33 -101.5 -58.5t-154.5 -25.5 q-106 0 -193.5 40t-149 113t-94 173t-32.5 223zM283 1214v238h180v-238h-180zM297 522q0 -150 72.5 -239.5t189.5 -89.5q51 0 99.5 19t85 59t59 102.5t22.5 150.5q0 61 -16 118.5t-49 104t-82 74t-117 27.5q-55 0 -103 -22.5t-84 -63.5t-56.5 -102.5t-20.5 -137.5zM649 1214 v238h182v-238h-182z" />
<glyph unicode="&#xe5;" horiz-adv-x="1234" d="M31 522q0 125 35.5 226.5t99 173t153 110.5t193.5 39q86 0 144.5 -20.5t93.5 -44.5q41 -29 65 -64h6q-2 8 -2 19q-2 10 -2 20v25v65h264v-807q0 -47 47 -47h80v-219h-241q-72 0 -102.5 29.5t-30.5 78.5v37h-5q-29 -49 -73 -86q-39 -33 -101.5 -58.5t-154.5 -25.5 q-106 0 -193.5 40t-149 113t-94 173t-32.5 223zM297 522q0 -150 72.5 -239.5t189.5 -89.5q51 0 99.5 19t85 59t59 102.5t22.5 150.5q0 61 -16 118.5t-49 104t-82 74t-117 27.5q-55 0 -103 -22.5t-84 -63.5t-56.5 -102.5t-20.5 -137.5zM373 1309q0 80 56 120.5t126 40.5 t126 -40.5t56 -120.5q0 -39 -15 -69t-41 -50.5t-58.5 -30.5t-67.5 -10t-67.5 10t-58.5 30.5t-41 50.5t-15 69zM483 1309q0 -31 20.5 -50.5t51.5 -19.5t51.5 19.5t20.5 50.5q0 33 -20.5 52t-51.5 19t-51.5 -19.5t-20.5 -51.5z" />
<glyph unicode="&#xe6;" horiz-adv-x="1773" />
<glyph unicode="&#xe7;" horiz-adv-x="1101" d="M66 522q0 111 38.5 210t112.5 174t179.5 119t240.5 44q51 0 116.5 -11t124 -39t98.5 -73t40 -112v-123h-230v57q0 20 -14 36.5t-36.5 26t-48 14.5t-50.5 5q-68 0 -124 -24.5t-98 -67.5t-64.5 -103.5t-22.5 -130.5q0 -80 27.5 -140t72.5 -100t103.5 -60.5t121.5 -20.5 q66 0 123.5 21.5t97.5 47.5q49 31 89 72l108 -180q-45 -51 -110 -92q-55 -35 -136.5 -65t-185.5 -32l-14 -65q61 -8 104 -46t43 -110q0 -51 -19.5 -85t-50 -55.5t-69.5 -30.5t-80 -9q-57 0 -90 6q-20 4 -37 8v144q12 -4 27 -8q12 -4 28.5 -6.5t34.5 -2.5q35 0 61.5 12.5 t26.5 45.5q0 29 -28.5 42t-69.5 13q-8 0 -15.5 -1t-13.5 -1q-8 -2 -14 -2l45 164q-102 18 -184 66t-139.5 119t-88 160t-30.5 189z" />
<glyph unicode="&#xe8;" horiz-adv-x="1140" d="M66 522q0 121 38.5 221.5t108.5 173t168 112.5t215 40q113 0 199 -39t144 -105.5t89 -156.5t31 -195q0 -12 -1 -27.5t-3 -31.5q-2 -18 -2 -37h-721q16 -139 105 -209.5t208 -70.5q63 0 115.5 17t93.5 40q45 25 84 59l109 -180q-49 -45 -113 -80q-53 -29 -131 -53.5 t-176 -24.5q-129 0 -233.5 44t-177.5 119t-111.5 174t-38.5 210zM276 1452h250l156 -278h-193zM340 657h453q-4 94 -60.5 152.5t-136.5 58.5q-100 0 -167 -56t-89 -155z" />
<glyph unicode="&#xe9;" horiz-adv-x="1140" d="M66 522q0 121 38.5 221.5t108.5 173t168 112.5t215 40q113 0 199 -39t144 -105.5t89 -156.5t31 -195q0 -12 -1 -27.5t-3 -31.5q-2 -18 -2 -37h-721q16 -139 105 -209.5t208 -70.5q63 0 115.5 17t93.5 40q45 25 84 59l109 -180q-49 -45 -113 -80q-53 -29 -131 -53.5 t-176 -24.5q-129 0 -233.5 44t-177.5 119t-111.5 174t-38.5 210zM340 657h453q-4 94 -60.5 152.5t-136.5 58.5q-100 0 -167 -56t-89 -155zM489 1174l156 278h250l-215 -278h-191z" />
<glyph unicode="&#xea;" horiz-adv-x="1140" d="M66 522q0 121 38.5 221.5t108.5 173t168 112.5t215 40q113 0 199 -39t144 -105.5t89 -156.5t31 -195q0 -12 -1 -27.5t-3 -31.5q-2 -18 -2 -37h-721q16 -139 105 -209.5t208 -70.5q63 0 115.5 17t93.5 40q45 25 84 59l109 -180q-49 -45 -113 -80q-53 -29 -131 -53.5 t-176 -24.5q-129 0 -233.5 44t-177.5 119t-111.5 174t-38.5 210zM291 1174l186 278h223l189 -278h-195l-102 165h-4l-105 -165h-192zM340 657h453q-4 94 -60.5 152.5t-136.5 58.5q-100 0 -167 -56t-89 -155z" />
<glyph unicode="&#xeb;" horiz-adv-x="1140" d="M66 522q0 121 38.5 221.5t108.5 173t168 112.5t215 40q113 0 199 -39t144 -105.5t89 -156.5t31 -195q0 -12 -1 -27.5t-3 -31.5q-2 -18 -2 -37h-721q16 -139 105 -209.5t208 -70.5q63 0 115.5 17t93.5 40q45 25 84 59l109 -180q-49 -45 -113 -80q-53 -29 -131 -53.5 t-176 -24.5q-129 0 -233.5 44t-177.5 119t-111.5 174t-38.5 210zM315 1214v238h181v-238h-181zM340 657h453q-4 94 -60.5 152.5t-136.5 58.5q-100 0 -167 -56t-89 -155zM682 1214v238h182v-238h-182z" />
<glyph unicode="&#xec;" horiz-adv-x="618" d="M-18 1454h247l156 -280h-190zM53 823v221h248q139 0 139 -139v-641q0 -45 45 -45h80v-219h-246q-74 0 -106.5 33t-32.5 106v639q0 45 -45 45h-82z" />
<glyph unicode="&#xed;" horiz-adv-x="618" d="M53 823v221h248q139 0 139 -139v-641q0 -45 45 -45h80v-219h-246q-74 0 -106.5 33t-32.5 106v639q0 45 -45 45h-82zM195 1174l155 280h248l-213 -280h-190z" />
<glyph unicode="&#xee;" horiz-adv-x="618" d="M-6 1174l188 280h224l188 -280h-197l-102 167h-4l-103 -167h-194zM53 823v221h248q139 0 139 -139v-641q0 -45 45 -45h80v-219h-246q-74 0 -106.5 33t-32.5 106v639q0 45 -45 45h-82z" />
<glyph unicode="&#xef;" horiz-adv-x="618" d="M41 1214v240h180v-240h-180zM53 823v221h248q139 0 139 -139v-641q0 -45 45 -45h80v-219h-246q-74 0 -106.5 33t-32.5 106v639q0 45 -45 45h-82zM356 1214v240h183v-240h-183z" />
<glyph unicode="&#xf0;" horiz-adv-x="1198" d="M78 485q0 90 31.5 175t93 149.5t151.5 103.5t205 39q49 0 87 -10t67 -20q31 -12 55 -29h4q-59 131 -192 217l-379 -164l-13 154l228 100q-57 29 -117.5 48.5t-118.5 33.5l72 205q117 -27 230.5 -69t211.5 -101l303 129l13 -152l-181 -80q127 -111 204 -270.5t77 -374.5 q0 -104 -28.5 -209.5t-92 -191.5t-165 -139.5t-246.5 -53.5q-121 0 -213.5 43t-157 115t-97 163t-32.5 189zM340 479q0 -53 14.5 -104t45 -91t76.5 -64.5t108 -24.5q72 0 122 29.5t81.5 76.5t46 105.5t14.5 115.5q0 98 -64.5 163t-177.5 65q-68 0 -118 -22.5t-82.5 -60.5 t-49 -87.5t-16.5 -100.5z" />
<glyph unicode="&#xf1;" horiz-adv-x="1316" d="M43 823v221h240q70 0 103.5 -30.5t33.5 -85.5v-31q0 -10 -1 -17.5t-1 -13.5q-2 -8 -2 -14h4q16 33 47 71t76 70.5t105.5 54t139.5 21.5q174 0 269.5 -94t95.5 -303v-408q0 -45 45 -45h82v-219h-248q-74 0 -106.5 33t-32.5 106v479q0 96 -33 154.5t-131 58.5 q-104 0 -178 -59t-102 -154q-20 -61 -21 -139v-479h-258v778q0 45 -45 45h-82zM301 1176q0 281 234 280q53 0 88.5 -20.5t63.5 -46t52.5 -46t57.5 -20.5q43 0 63.5 39t20.5 88h161q0 -281 -233 -281q-53 0 -89 20.5t-63.5 46.5t-52 46.5t-57.5 20.5q-43 0 -63.5 -38 t-20.5 -89h-162z" />
<glyph unicode="&#xf2;" horiz-adv-x="1275" d="M66 522q0 119 45 220.5t121.5 173t181 112.5t223.5 41t224.5 -41t182 -112.5t121.5 -173t45 -220.5q0 -121 -45 -221t-121.5 -173t-182 -113t-224.5 -40t-223.5 40t-181 113t-121.5 173t-45 221zM324 1452h249l156 -278h-192zM328 522q0 -74 24.5 -133t66.5 -102 t98 -66.5t120 -23.5q63 0 119.5 23.5t99.5 66.5t67.5 102.5t24.5 132.5q0 72 -24.5 132.5t-67.5 103.5t-99.5 66.5t-119.5 23.5t-119.5 -23.5t-98.5 -66.5t-66.5 -103.5t-24.5 -132.5z" />
<glyph unicode="&#xf3;" horiz-adv-x="1275" d="M66 522q0 119 45 220.5t121.5 173t181 112.5t223.5 41t224.5 -41t182 -112.5t121.5 -173t45 -220.5q0 -121 -45 -221t-121.5 -173t-182 -113t-224.5 -40t-223.5 40t-181 113t-121.5 173t-45 221zM328 522q0 -74 24.5 -133t66.5 -102t98 -66.5t120 -23.5q63 0 119.5 23.5 t99.5 66.5t67.5 102.5t24.5 132.5q0 72 -24.5 132.5t-67.5 103.5t-99.5 66.5t-119.5 23.5t-119.5 -23.5t-98.5 -66.5t-66.5 -103.5t-24.5 -132.5zM539 1174l155 278h250l-215 -278h-190z" />
<glyph unicode="&#xf4;" horiz-adv-x="1275" d="M66 522q0 119 45 220.5t121.5 173t181 112.5t223.5 41t224.5 -41t182 -112.5t121.5 -173t45 -220.5q0 -121 -45 -221t-121.5 -173t-182 -113t-224.5 -40t-223.5 40t-181 113t-121.5 173t-45 221zM328 522q0 -74 24.5 -133t66.5 -102t98 -66.5t120 -23.5q63 0 119.5 23.5 t99.5 66.5t67.5 102.5t24.5 132.5q0 72 -24.5 132.5t-67.5 103.5t-99.5 66.5t-119.5 23.5t-119.5 -23.5t-98.5 -66.5t-66.5 -103.5t-24.5 -132.5zM340 1174l186 278h224l188 -278h-195l-102 165h-4l-105 -165h-192z" />
<glyph unicode="&#xf5;" horiz-adv-x="1275" d="M66 522q0 119 45 220.5t121.5 173t181 112.5t223.5 41t224.5 -41t182 -112.5t121.5 -173t45 -220.5q0 -121 -45 -221t-121.5 -173t-182 -113t-224.5 -40t-223.5 40t-181 113t-121.5 173t-45 221zM266 1176q0 281 234 280q53 0 89 -20.5t63.5 -46t52 -46t57.5 -20.5 q43 0 63.5 39t20.5 88h162q0 -281 -234 -281q-53 0 -89 20.5t-63.5 46.5t-52 46.5t-57.5 20.5q-43 0 -63.5 -38t-20.5 -89h-162zM328 522q0 -74 24.5 -133t66.5 -102t98 -66.5t120 -23.5q63 0 119.5 23.5t99.5 66.5t67.5 102.5t24.5 132.5q0 72 -24.5 132.5t-67.5 103.5 t-99.5 66.5t-119.5 23.5t-119.5 -23.5t-98.5 -66.5t-66.5 -103.5t-24.5 -132.5z" />
<glyph unicode="&#xf6;" horiz-adv-x="1275" d="M66 522q0 119 45 220.5t121.5 173t181 112.5t223.5 41t224.5 -41t182 -112.5t121.5 -173t45 -220.5q0 -121 -45 -221t-121.5 -173t-182 -113t-224.5 -40t-223.5 40t-181 113t-121.5 173t-45 221zM328 522q0 -74 24.5 -133t66.5 -102t98 -66.5t120 -23.5q63 0 119.5 23.5 t99.5 66.5t67.5 102.5t24.5 132.5q0 72 -24.5 132.5t-67.5 103.5t-99.5 66.5t-119.5 23.5t-119.5 -23.5t-98.5 -66.5t-66.5 -103.5t-24.5 -132.5zM365 1214v238h180v-238h-180zM731 1214v238h182v-238h-182z" />
<glyph unicode="&#xf7;" d="M94 483v203h1067v-203h-1067zM510 55v221h233v-221h-233zM510 895v221h233v-221h-233z" />
<glyph unicode="&#xf8;" horiz-adv-x="1275" d="M66 522q0 119 45 220.5t121.5 173t181 112.5t223.5 41q74 0 144.5 -17.5t129.5 -47.5l84 116l113 -78l-82 -112q86 -74 135 -177.5t49 -230.5q0 -121 -45 -221t-121.5 -173t-182 -113t-224.5 -40q-143 0 -256 56l-84 -119l-113 80l78 108q-92 74 -144 181.5t-52 240.5z M328 522q0 -68 21.5 -123t58.5 -98l366 514q-66 33 -137 33q-63 0 -119.5 -23.5t-98.5 -66.5t-66.5 -103.5t-24.5 -132.5zM518 221q55 -25 119 -24q63 0 119.5 23.5t99.5 66.5t67.5 102.5t24.5 132.5q0 59 -18.5 110.5t-50.5 90.5z" />
<glyph unicode="&#xf9;" horiz-adv-x="1306" d="M39 823v221h248q72 0 104.5 -32.5t32.5 -104.5v-481q0 -96 32.5 -154.5t129.5 -58.5q70 0 125 28.5t92 78t56.5 113t19.5 132.5v479h260v-780q0 -45 45 -45h82v-219h-240q-68 0 -102.5 30.5t-34.5 86.5v28v33q0 8 2 15h-4q-18 -41 -52 -80t-80 -70t-103.5 -49.5 t-125.5 -18.5q-168 0 -264 92.5t-96 305.5v405q0 45 -45 45h-82zM328 1452h250l155 -278h-192z" />
<glyph unicode="&#xfa;" horiz-adv-x="1306" d="M39 823v221h248q72 0 104.5 -32.5t32.5 -104.5v-481q0 -96 32.5 -154.5t129.5 -58.5q70 0 125 28.5t92 78t56.5 113t19.5 132.5v479h260v-780q0 -45 45 -45h82v-219h-240q-68 0 -102.5 30.5t-34.5 86.5v28v33q0 8 2 15h-4q-18 -41 -52 -80t-80 -70t-103.5 -49.5 t-125.5 -18.5q-168 0 -264 92.5t-96 305.5v405q0 45 -45 45h-82zM541 1174l155 278h250l-215 -278h-190z" />
<glyph unicode="&#xfb;" horiz-adv-x="1306" d="M39 823v221h248q72 0 104.5 -32.5t32.5 -104.5v-481q0 -96 32.5 -154.5t129.5 -58.5q70 0 125 28.5t92 78t56.5 113t19.5 132.5v479h260v-780q0 -45 45 -45h82v-219h-240q-68 0 -102.5 30.5t-34.5 86.5v28v33q0 8 2 15h-4q-18 -41 -52 -80t-80 -70t-103.5 -49.5 t-125.5 -18.5q-168 0 -264 92.5t-96 305.5v405q0 45 -45 45h-82zM342 1174l186 278h224l188 -278h-195l-102 165h-4l-104 -165h-193z" />
<glyph unicode="&#xfc;" horiz-adv-x="1306" d="M39 823v221h248q72 0 104.5 -32.5t32.5 -104.5v-481q0 -96 32.5 -154.5t129.5 -58.5q70 0 125 28.5t92 78t56.5 113t19.5 132.5v479h260v-780q0 -45 45 -45h82v-219h-240q-68 0 -102.5 30.5t-34.5 86.5v28v33q0 8 2 15h-4q-18 -41 -52 -80t-80 -70t-103.5 -49.5 t-125.5 -18.5q-168 0 -264 92.5t-96 305.5v405q0 45 -45 45h-82zM369 1214v238h180v-238h-180zM735 1214v238h183v-238h-183z" />
<glyph unicode="&#xfd;" horiz-adv-x="1132" d="M2 -324l100 185q20 -20 43 -37q20 -14 47 -24.5t60 -10.5q53 0 98 33t74 100l25 80l-435 1042h183q55 0 85.5 -22.5t51.5 -75.5l205 -522q16 -43 26 -90q6 -25 10 -49h5q4 25 10 49q4 23 10 46t14 44l179 522q18 53 52 75.5t87 22.5h186l-475 -1202 q-55 -141 -157.5 -206.5t-219.5 -65.5q-61 0 -110.5 16.5t-83.5 36.5q-39 23 -70 53zM471 1174l156 278h250l-215 -278h-191z" />
<glyph unicode="&#xfe;" horiz-adv-x="1265" d="M164 -410v1864h121q74 0 106.5 -34t32.5 -105v-297q0 -20 -1 -36.5t-1 -29.5q-2 -14 -2 -24h4q47 66 120.5 103.5t184.5 37.5q106 0 193.5 -41t149 -113.5t95 -173t33.5 -219.5q0 -117 -33.5 -217t-95 -174t-148.5 -115t-194 -41q-86 0 -144.5 21.5t-92.5 48.5 q-43 31 -68 70h-4q0 -10 2 -25q0 -12 1 -28.5t1 -36.5v-435h-260zM416 522q0 -92 21.5 -153.5t58 -100.5t85 -55t101.5 -16q57 0 105.5 24.5t81 68.5t51 103.5t18.5 128.5q0 70 -18.5 130.5t-51 103.5t-81 67.5t-105.5 24.5q-55 0 -103.5 -17.5t-84 -55.5t-57 -100.5 t-21.5 -152.5z" />
<glyph unicode="&#xff;" horiz-adv-x="1132" d="M2 -324l100 185q20 -20 43 -37q20 -14 47 -24.5t60 -10.5q53 0 98 33t74 100l35 80l-434 1042h172q55 0 85.5 -22.5t51.5 -75.5l205 -522q16 -43 26 -90q6 -25 10 -49h5q4 25 10 49q4 23 10 46t14 44l179 522q18 53 52 75.5t87 22.5h176l-465 -1202 q-55 -141 -157.5 -206.5t-219.5 -65.5q-61 0 -110.5 16.5t-83.5 36.5q-39 23 -70 53zM297 1214v238h180v-238h-180zM664 1214v238h182v-238h-182z" />
<glyph unicode="&#x104;" horiz-adv-x="1380" d="M23 0l528 1454h280l527 -1454q-14 -12 -33.5 -30.5t-37 -40t-30 -44t-12.5 -45.5q0 -25 15.5 -39t33.5 -22q23 -8 49 -12l-61 -193q-72 10 -127 33q-47 20 -86 59t-39 105q0 39 13.5 73.5t33 63.5t44 52.5t46.5 39.5v4q-61 4 -89.5 29.5t-51.5 85.5l-90 254h-492 l-90 -254q-25 -70 -59.5 -94.5t-110.5 -24.5h-161zM506 594h368l-124 364q-10 29 -20.5 67t-18.5 73q-8 39 -19 78h-4q-10 -39 -18 -78q-8 -35 -18.5 -73t-20.5 -67z" />
<glyph unicode="&#x105;" horiz-adv-x="1245" d="M31 522q0 125 35.5 226.5t99 173t153 110.5t193.5 39q86 0 144.5 -20.5t93.5 -44.5q41 -29 65 -64h6q-2 8 -2 19q-2 10 -2 20v25v65h264v-807q0 -47 47 -47h80v-219h-241q-72 0 -102.5 29.5t-30.5 78.5v37h-5q-29 -49 -73 -86q-39 -33 -101.5 -58.5t-154.5 -25.5 q-106 0 -193.5 40t-149 113t-94 173t-32.5 223zM297 522q0 -150 72.5 -239.5t189.5 -89.5q51 0 99.5 19t85 59t59 102.5t22.5 150.5q0 61 -16 118.5t-49 104t-82 74t-117 27.5q-55 0 -103 -22.5t-84 -63.5t-56.5 -102.5t-20.5 -137.5zM838 -229q0 -66 38.5 -105t86.5 -59 q55 -23 127 -33l61 193q-29 4 -51 12q-18 8 -33.5 22.5t-15.5 38.5q0 23 12 45.5t30.5 44t38 40t33.5 30.5h-250l58 -4q-23 -18 -46.5 -41t-44 -50.5t-32.5 -61t-12 -72.5z" />
<glyph unicode="&#x106;" horiz-adv-x="1452" d="M61 739q0 158 56.5 293t155 234.5t233.5 156t293 56.5q70 0 165 -16.5t181 -54.5t145.5 -100.5t59.5 -154.5v-162h-244v82q0 39 -29.5 68.5t-74 49t-97.5 29t-100 9.5q-98 0 -182 -34t-147.5 -97.5t-99.5 -154.5t-36 -204q0 -106 37 -200.5t100.5 -164t150.5 -109.5 t185 -40q104 0 185 30t139 67q68 41 116 96l142 -193q-63 -72 -152 -125q-76 -47 -184.5 -86t-249.5 -39q-166 0 -304 58.5t-236.5 162t-153 242.5t-54.5 301zM690 1550l156 279h250l-215 -279h-191z" />
<glyph unicode="&#x107;" horiz-adv-x="1101" d="M66 522q0 111 38.5 210t112.5 174t179.5 119t240.5 44q51 0 116.5 -11t124 -39t98.5 -73t40 -112v-123h-230v57q0 20 -14 36.5t-36.5 26t-48 14.5t-50.5 5q-68 0 -124 -24.5t-98 -67.5t-64.5 -103.5t-22.5 -130.5q0 -80 27.5 -140t72.5 -100t103.5 -60.5t121.5 -20.5 q66 0 123.5 21.5t97.5 47.5q49 31 89 72l108 -180q-47 -53 -113 -94q-55 -35 -138 -65t-189 -30q-129 0 -233.5 43t-178.5 117t-113.5 173t-39.5 214zM498 1174l155 278h250l-215 -278h-190z" />
<glyph unicode="&#x118;" horiz-adv-x="1183" d="M203 141v1315h745q141 0 142 -141v-88h-619v-381h471v-228h-471v-346q0 -45 45 -45h432h47q74 0 108 -33.5t34 -105.5v-88h-402h-391q-76 0 -108.5 33t-32.5 108zM269 69.5q1 26.5 19.5 48t55.5 21.5h758q0 -23 3 -39t4 -31.5t-2 -28.5t-17 -26q-23 -18 -45.5 -38.5 t-43 -42t-33 -45t-12.5 -48.5t15.5 -39t34.5 -22q23 -8 49 -12l-62 -193q-72 10 -127 33q-47 20 -86 59t-39 105q0 78 43 134t88 91v4h-530q-37 0 -55.5 21.5t-17.5 48z" />
<glyph unicode="&#x119;" horiz-adv-x="1140" d="M66 522q0 121 38.5 221.5t108.5 173t168 112.5t215 40q113 0 199 -39t144 -105.5t89 -156.5t31 -195q0 -12 -1 -27.5t-3 -31.5q-2 -18 -2 -37h-721q16 -137 105 -208.5t208 -71.5q63 0 115.5 17t93.5 40q45 25 84 59l109 -180q-29 -27 -71 -58.5t-83 -67.5t-69.5 -78 t-28.5 -89q0 -25 15 -39t34 -22q23 -8 51 -12l-64 -193q-72 10 -124 33q-47 20 -86 59t-39 105q0 68 37.5 119t80.5 87v5q-37 -6 -73 -7q-129 0 -233.5 44t-177.5 119t-111.5 174t-38.5 210zM340 657h453q-4 96 -59.5 153.5t-137.5 57.5q-100 0 -167 -56t-89 -155z" />
<glyph unicode="&#x131;" horiz-adv-x="618" d="M53 823v221h248q139 0 139 -139v-641q0 -45 45 -45h80v-219h-246q-74 0 -106.5 33t-32.5 106v639q0 45 -45 45h-82z" />
<glyph unicode="&#x141;" horiz-adv-x="1142" d="M76 473v254l127 72v655h129q74 0 106.5 -34t32.5 -105v-363l201 117v-254l-201 -117v-426q0 -45 45 -45l606 -2v-86q0 -74 -32.5 -106.5t-106.5 -32.5h-641q-74 0 -106.5 33t-32.5 106v406z" />
<glyph unicode="&#x142;" horiz-adv-x="620" d="M45 508v256l135 78l2 612h119q72 0 104.5 -34t32.5 -105v-326l150 84v-254l-150 -86v-469q0 -45 45 -45h82v-219h-248q-72 0 -104.5 33t-32.5 106v445z" />
<glyph unicode="&#x143;" horiz-adv-x="1503" d="M166 0v1454h242l550 -805q23 -33 44.5 -67.5t37.5 -65.5q20 -37 39 -72h4q-4 35 -8 72q-4 31 -5 65.5t-1 67.5v666q0 72 33 105.5t106 33.5h131l-2 -1454h-239l-553 803q-23 31 -44.5 66.5t-37.5 66.5q-20 37 -39 72h-4q2 -35 6 -72q4 -31 6 -66.5t2 -66.5v-664 q0 -74 -32.5 -106.5t-106.5 -32.5h-129zM670 1550l155 279h250l-215 -279h-190z" />
<glyph unicode="&#x144;" horiz-adv-x="1316" d="M43 823v221h240q70 0 103.5 -30.5t33.5 -85.5v-31q0 -10 -1 -17.5t-1 -13.5q-2 -8 -2 -14h4q16 33 47 71t76 70.5t105.5 54t139.5 21.5q174 0 269.5 -94t95.5 -303v-408q0 -45 45 -45h82v-219h-248q-74 0 -106.5 33t-32.5 106v479q0 96 -33 154.5t-131 58.5 q-104 0 -178 -59t-102 -154q-20 -61 -21 -139v-479h-258v778q0 45 -45 45h-82zM573 1174l156 278h250l-215 -278h-191z" />
<glyph unicode="&#x152;" horiz-adv-x="1945" d="M61 729q0 156 56.5 292t155 235.5t231.5 156.5t287 57q49 0 89 -3t74.5 -6t66.5 -5t66 -2v-1454q-68 0 -133 -9t-163 -9q-154 0 -287 58t-231.5 158.5t-155 236.5t-56.5 294zM340 729q0 -109 33 -200t93 -156.5t143 -103.5t182 -38q123 0 180 15v960q-35 8 -76 12.5 t-104 4.5q-98 0 -181.5 -38t-143.5 -103.5t-93 -156t-33 -196.5zM971 141v1315h745q141 0 142 -141v-88h-619v-381h471v-228h-471v-346q0 -45 45 -45h432h47q74 0 108 -33.5t34 -105.5v-88h-402h-391q-76 0 -108.5 33t-32.5 108z" />
<glyph unicode="&#x153;" horiz-adv-x="2035" d="M66 520q0 123 45 224.5t121.5 173t181 111.5t221.5 40q156 0 262.5 -58.5t177.5 -156.5h4q61 98 160.5 156.5t251.5 58.5q113 0 200 -39t145 -105.5t88 -156.5t30 -195q0 -12 -1 -27.5t-3 -31.5q-2 -18 -2 -37h-721q8 -70 36.5 -122t70.5 -88t95.5 -53t110.5 -17 q63 0 116.5 17t94.5 40q47 25 84 59l107 -180q-49 -45 -113 -80q-53 -29 -131 -53.5t-176 -24.5q-164 0 -268.5 61.5t-168.5 160.5h-4q-72 -98 -179 -160t-265 -62q-119 0 -222.5 39t-181 110t-122.5 172t-45 224zM328 520q0 -74 24.5 -134t66.5 -102t98 -64.5t120 -22.5 q63 0 119.5 22.5t99.5 64.5t67.5 102t24.5 136q0 74 -25.5 134.5t-68.5 103.5t-99.5 65.5t-117.5 22.5q-63 0 -119.5 -23.5t-98.5 -66.5t-66.5 -103.5t-24.5 -134.5zM1235 657h453q-4 94 -57.5 152.5t-139.5 58.5q-100 0 -167 -56t-89 -155z" />
<glyph unicode="&#x15a;" horiz-adv-x="1124" d="M66 201l151 188q45 -49 100 -86q47 -33 111 -59.5t141 -26.5q41 0 79 11.5t66.5 33t46 53t17.5 74.5q0 61 -50 104.5t-127 81t-165 77.5t-164.5 94.5t-127 132t-50.5 190.5q0 88 37 163t101.5 130t153.5 86t194 31q63 0 139 -15.5t140.5 -50.5t108.5 -89t44 -132v-135 h-242v65q0 25 -16.5 46.5t-44 36t-61.5 22.5t-70 8q-92 0 -152.5 -43t-60.5 -113q0 -61 50 -102t126.5 -77t165 -72.5t165 -91t127 -134.5t50.5 -199q0 -86 -33 -163.5t-94.5 -136t-151.5 -93.5t-205 -35q-123 0 -215 35t-155 78q-74 49 -129 113zM477 1550l156 279h250 l-215 -279h-191z" />
<glyph unicode="&#x15b;" horiz-adv-x="958" d="M51 162l123 170q39 -43 88 -78q41 -29 98.5 -52.5t124.5 -23.5q59 0 100.5 24.5t41.5 78.5q0 37 -41 63.5t-102.5 52t-132 54t-132 70.5t-102.5 100.5t-41 142.5q0 78 32.5 135t88 95t129 56.5t155.5 18.5q53 0 117 -10t119 -35t93 -67t38 -105v-109h-230v52q0 37 -44 55 t-87 18q-70 0 -112.5 -23.5t-42.5 -70.5q0 -41 41 -68.5t102.5 -51t134 -50t134 -66.5t102.5 -98.5t41 -144.5q0 -74 -31 -133.5t-85 -100.5t-127 -63.5t-159 -22.5q-109 0 -190.5 29t-134.5 64q-66 41 -109 94zM375 1174l155 278h250l-215 -278h-190z" />
<glyph unicode="&#x178;" horiz-adv-x="1259" d="M2 1454h156q35 0 61.5 -4t48 -15.5t41 -32t39.5 -54.5l193 -320q18 -33 34.5 -61.5t28.5 -51.5q14 -27 25 -51h4q10 23 24 49q12 23 27.5 52.5t36.5 62.5l190 320q20 35 39 55t41.5 31.5t49 15.5t61.5 4h153l-491 -819v-635h-268v635zM358 1591v238h181v-238h-181z M725 1591v238h182v-238h-182z" />
<glyph unicode="&#x179;" horiz-adv-x="1204" d="M35 0v170l653 926q23 31 42.5 55.5t35.5 40.5q18 20 33 35v4q-14 -2 -31 -2q-14 -2 -34.5 -2h-45.5l-641 2v86q0 72 33 105.5t106 33.5h944v-168l-653 -928q-23 -33 -42 -56t-36 -40q-18 -20 -32 -35v-4q14 0 30 2q14 0 34 1t46 1l684 -2v-86q0 -74 -32.5 -106.5 t-106.5 -32.5h-987zM514 1550l156 279h250l-215 -279h-191z" />
<glyph unicode="&#x17a;" horiz-adv-x="1046" d="M55 0v139l482 588q16 23 32.5 40t28.5 30l27 26v4q-10 -2 -25 -2q-12 -2 -29.5 -2h-42.5h-469v82q0 72 33 105.5t107 33.5h766v-141l-482 -588q-18 -23 -33.5 -40t-27.5 -29l-27 -27v-4q10 0 25 2q12 2 29.5 3t44.5 1l510 -2v-80q0 -74 -33 -106.5t-105 -32.5h-811z M438 1174l156 278h250l-215 -278h-191z" />
<glyph unicode="&#x17b;" horiz-adv-x="1204" d="M35 0v170l653 926q23 31 42.5 55.5t35.5 40.5q18 20 33 35v4q-14 -2 -31 -2q-14 -2 -34.5 -2h-45.5l-641 2v86q0 72 33 105.5t106 33.5h944v-168l-653 -928q-23 -33 -42 -56t-36 -40q-18 -20 -32 -35v-4q14 0 30 2q14 0 34 1t46 1l684 -2v-86q0 -74 -32.5 -106.5 t-106.5 -32.5h-987zM502 1591v238h225v-238h-225z" />
<glyph unicode="&#x17c;" horiz-adv-x="1046" d="M55 0v139l482 588q16 23 32.5 40t28.5 30l27 26v4q-10 -2 -25 -2q-12 -2 -29.5 -2h-42.5h-469v82q0 72 33 105.5t107 33.5h766v-141l-482 -588q-18 -23 -33.5 -40t-27.5 -29l-27 -27v-4q10 0 25 2q12 2 29.5 3t44.5 1l510 -2v-80q0 -74 -33 -106.5t-105 -32.5h-811z M426 1214v238h225v-238h-225z" />
<glyph unicode="&#x192;" horiz-adv-x="765" d="M-109 -109l21 222q6 -2 14 -2q8 -2 37 -2q27 0 62.5 6t68.5 25.5t56.5 57.5t29.5 99l35 387h-145v207h163l17 184q12 129 63.5 205t121 117t144 53t130.5 12q20 0 35.5 -1t27.5 -3t25 -2l-21 -221q-6 0 -14 2q-8 0 -17.5 1t-21.5 1q-29 0 -63.5 -6t-67.5 -25.5 t-56.5 -57.5t-29.5 -99l-14 -160h206v-207h-225l-37 -410q-12 -129 -64.5 -205.5t-121 -117.5t-143.5 -53.5t-130 -12.5h-35.5t-25.5 2q-12 2 -25 4z" />
<glyph unicode="&#x2c6;" horiz-adv-x="1026" d="M215 1550l186 279h224l188 -279h-195l-102 166h-4l-104 -166h-193z" />
<glyph unicode="&#x2c7;" horiz-adv-x="1028" d="M213 1829h195l102 -166h4l102 166h197l-190 -279h-222z" />
<glyph unicode="&#x2d8;" horiz-adv-x="1060" d="M227 1804v25h166v-25q0 -63 40 -92t87 -29t87 29t40 94v23h166v-25q0 -63 -25.5 -112.5t-67.5 -82t-94.5 -50t-105.5 -17.5t-106.5 17.5t-94 50t-66.5 82t-26 112.5z" />
<glyph unicode="&#x2d9;" horiz-adv-x="593" d="M184 1591v238h226v-238h-226z" />
<glyph unicode="&#x2da;" horiz-adv-x="786" d="M211 1686q0 80 56.5 120.5t125.5 40.5q70 0 126 -41t56 -120q0 -39 -15 -69t-40.5 -50.5t-58.5 -30.5t-68 -10t-67.5 10t-58 30.5t-41 50.5t-15.5 69zM322 1686q0 -31 20 -50.5t51 -19.5t51.5 19.5t20.5 50.5q0 33 -20.5 52t-51.5 19t-51 -19.5t-20 -51.5z" />
<glyph unicode="&#x2db;" horiz-adv-x="776" d="M227 -229q0 57 28 105t62 83q39 41 91 74l174 -8q-39 -31 -70 -64q-27 -29 -48.5 -60.5t-21.5 -60.5q0 -25 15.5 -39t34.5 -22q23 -8 49 -12l-62 -193q-72 10 -127 33q-47 20 -86 59t-39 105z" />
<glyph unicode="&#x2dc;" horiz-adv-x="1122" d="M197 1552q0 281 233 281q53 0 89 -20.5t63.5 -46t52 -46t57.5 -20.5q43 0 63.5 39t20.5 88h162q0 -281 -233 -281q-53 0 -89 20.5t-64 46t-52.5 46t-57.5 20.5q-43 0 -63.5 -37.5t-20.5 -89.5h-161z" />
<glyph unicode="&#x2dd;" horiz-adv-x="1138" d="M190 1550l148 279h213l-152 -279h-209zM543 1550l157 279h248l-213 -279h-192z" />
<glyph unicode="&#x2000;" horiz-adv-x="923" />
<glyph unicode="&#x2001;" horiz-adv-x="1847" />
<glyph unicode="&#x2002;" horiz-adv-x="923" />
<glyph unicode="&#x2003;" horiz-adv-x="1847" />
<glyph unicode="&#x2004;" horiz-adv-x="615" />
<glyph unicode="&#x2005;" horiz-adv-x="461" />
<glyph unicode="&#x2006;" horiz-adv-x="307" />
<glyph unicode="&#x2007;" horiz-adv-x="307" />
<glyph unicode="&#x2008;" horiz-adv-x="230" />
<glyph unicode="&#x2009;" horiz-adv-x="369" />
<glyph unicode="&#x200a;" horiz-adv-x="102" />
<glyph unicode="&#x2010;" horiz-adv-x="882" d="M133 471v227h617v-227h-617z" />
<glyph unicode="&#x2011;" horiz-adv-x="882" d="M133 471v227h617v-227h-617z" />
<glyph unicode="&#x2012;" horiz-adv-x="882" d="M133 471v227h617v-227h-617z" />
<glyph unicode="&#x2013;" horiz-adv-x="1357" d="M113 483v203h1132v-203h-1132z" />
<glyph unicode="&#x2014;" horiz-adv-x="1767" d="M113 483v203h1542v-203h-1542z" />
<glyph unicode="&#x2018;" horiz-adv-x="501" d="M86 1032l154 447h176l-97 -447h-233z" />
<glyph unicode="&#x2019;" horiz-adv-x="501" d="M86 1032l96 449h234l-154 -449h-176z" />
<glyph unicode="&#x201a;" horiz-adv-x="501" d="M86 -182l96 446h234l-154 -446h-176z" />
<glyph unicode="&#x201c;" horiz-adv-x="827" d="M86 1032l154 447h176l-97 -447h-233zM414 1032l151 447h176l-96 -447h-231z" />
<glyph unicode="&#x201d;" horiz-adv-x="827" d="M86 1032l96 449h234l-154 -449h-176zM414 1032l96 449h231l-151 -449h-176z" />
<glyph unicode="&#x201e;" horiz-adv-x="827" d="M86 -182l96 446h234l-154 -446h-176zM414 -182l96 446h231l-151 -446h-176z" />
<glyph unicode="&#x2020;" horiz-adv-x="872" d="M55 842v202h254v410h250v-410h258v-202h-258v-944h-250v944h-254z" />
<glyph unicode="&#x2021;" horiz-adv-x="872" d="M55 334v201h254v307h-254v202h254v410h250v-410h258v-202h-258v-307h258v-201h-258v-436h-250v436h-254z" />
<glyph unicode="&#x2022;" horiz-adv-x="960" d="M137 596q0 70 26.5 132.5t74 109.5t109 73.5t132.5 26.5q72 0 134.5 -26.5t108.5 -73.5t72.5 -109.5t26.5 -132.5q0 -72 -26.5 -133.5t-72.5 -108.5t-108.5 -73.5t-134.5 -26.5t-133 26.5t-108.5 73.5t-74 108.5t-26.5 133.5z" />
<glyph unicode="&#x2026;" horiz-adv-x="2033" d="M309 0v260h250v-260h-250zM891 0v260h252v-260h-252zM1475 0v260h251v-260h-251z" />
<glyph unicode="&#x202f;" horiz-adv-x="369" />
<glyph unicode="&#x2030;" horiz-adv-x="2398" d="M113 1155q0 66 26.5 125t71.5 103t105.5 70t129.5 26q70 0 130.5 -26t106.5 -70t72.5 -103t26.5 -125q0 -68 -26.5 -127t-72.5 -102t-106.5 -69t-130.5 -26t-130 26t-105 69t-71.5 102t-26.5 127zM164 0l1116 1454h240l-1117 -1454h-239zM311 1155q0 -57 39 -96t96 -39 t97.5 39t40.5 96q0 55 -40 95t-98 40q-57 0 -96 -40t-39 -95zM907 297q0 66 25.5 125t71 103t106.5 70t131 26t130.5 -26t105.5 -70t71.5 -103.5t26.5 -124.5q0 -68 -26.5 -126t-71.5 -101t-105.5 -69t-130.5 -26t-131 26t-106.5 69t-71 101t-25.5 126zM1106 299 q0 -57 39 -96t96 -39t97 39t40 96q0 55 -40 95t-97 40t-96 -40t-39 -95zM1671 297q0 66 25.5 125t70.5 103t106.5 70t131.5 26t130 -26t106.5 -70t73 -103.5t26.5 -124.5q0 -68 -26.5 -126t-73 -101t-106.5 -69t-130 -26t-131.5 26t-106.5 69t-70.5 101t-25.5 126zM1870 299 q0 -57 39 -96t96 -39t97 39t40 96q0 55 -40 95t-97 40t-96 -40t-39 -95z" />
<glyph unicode="&#x2039;" horiz-adv-x="802" d="M94 578l336 421h248l-336 -421l336 -420h-248z" />
<glyph unicode="&#x203a;" horiz-adv-x="802" d="M119 158l336 420l-336 421h248l335 -421l-335 -420h-248z" />
<glyph unicode="&#x2044;" horiz-adv-x="860" d="M47 0l565 1454h203l-567 -1454h-201z" />
<glyph unicode="&#x205f;" horiz-adv-x="461" />
<glyph unicode="&#x20ac;" horiz-adv-x="1253" d="M78 512v156h127q-2 10 -2 20q-2 10 -2 20.5v20.5v19.5t2 21.5q0 12 2 25h-127v157h153q33 115 99.5 212.5t158 167t204 108.5t239.5 39q41 0 76.5 -5.5t64.5 -9.5q33 -6 62 -12l-64 -240q-23 4 -45 11q-20 4 -46 7t-54 3q-147 0 -255 -76t-157 -205h510l-33 -157h-514 q-2 -8 -2 -19q-2 -10 -2 -21.5v-21.5v-20.5t2 -20.5l4 -24h488l-31 -156h-410q47 -131 158 -209t252 -78q41 0 74.5 4t62.5 11q31 8 60 16l47 -242q-33 -12 -72 -20q-35 -8 -79 -13.5t-97 -5.5q-131 0 -246 39t-205 110t-154.5 170t-95.5 218h-153z" />
<glyph unicode="&#x2122;" horiz-adv-x="2029" d="M70 1282v80q0 53 19.5 72.5t78.5 19.5h606q57 0 76.5 -19.5t19.5 -72.5v-80h-301v-735h-196v735h-303zM899 547l98 907h183l186 -428q4 -14 10 -28.5t10 -26.5q6 -14 9 -31h4q4 16 8 31q4 12 8 26.5t10 28.5l189 428h180l109 -907h-138q-55 0 -77.5 16.5t-26.5 75.5 l-27 375q-2 10 -1 21.5t1 21.5t2 20h-4l-159 -364h-154l-160 364h-4q2 -10 2 -20v-43l-27 -375q-4 -59 -25.5 -75.5t-76.5 -16.5h-129z" />
<glyph unicode="&#x221e;" horiz-adv-x="1058" d="M137 715q0 82 31 152.5t85 123.5t126 84t151 31q82 0 153 -31t123 -84t83 -123.5t31 -152.5q0 -80 -31 -151.5t-83 -126t-123 -85t-153 -30.5q-80 0 -151.5 30.5t-125.5 85t-85 126t-31 151.5z" />
<glyph unicode="&#x2248;" d="M113 393q57 57 140 105.5t179 48.5q72 0 124 -22.5t96 -49t87 -49.5t99 -23q61 0 119.5 34t99.5 79l102 -154q-57 -55 -140 -104t-181 -49q-72 0 -124 22.5t-96.5 49t-87.5 49t-98 22.5q-61 0 -119.5 -34.5t-99.5 -77.5zM113 811q57 59 140 107.5t179 48.5 q72 0 124 -22.5t96 -49.5t87 -49.5t99 -22.5q61 0 119.5 34t99.5 79l102 -154q-57 -57 -140 -106t-181 -49q-72 0 -124 22.5t-96.5 49t-87.5 49t-98 22.5q-61 0 -119.5 -34t-99.5 -77z" />
<glyph unicode="&#x2260;" d="M135 274v201h338l152 219h-490v201h623l155 229l125 -82l-102 -147h199v-201h-330l-152 -219h482v-201h-613l-153 -225l-127 80l100 145h-207z" />
<glyph unicode="&#x2264;" d="M131 502v168l985 438v-227l-710 -293v-4l710 -293v-228zM135 -174h981v-201h-981v201z" />
<glyph unicode="&#x2265;" d="M154 63v228l710 293v4l-710 293v227l985 -438v-168zM154 -174h983v-201h-983v201z" />
<glyph unicode="&#xe000;" horiz-adv-x="1044" d="M0 0v1044h1044v-1044h-1044z" />
<glyph unicode="&#xfb01;" horiz-adv-x="1298" d="M41 838v206h129v31q0 129 46 205t112.5 117t139.5 53t128 12q20 0 35.5 -1t27.5 -3t25 -2v-221q-8 0 -16 2q-8 0 -19.5 1t-23.5 1q-29 0 -63 -6t-62.5 -24.5t-49 -52.5t-20.5 -91v-21h555q139 0 139 -139v-641q0 -45 45 -45h80v-219h-245q-74 0 -107 33t-33 106v654 q0 45 -45 45h-389v-838h-260v838h-129zM877 1214v240h225v-240h-225z" />
<glyph unicode="&#xfb02;" horiz-adv-x="1282" d="M41 838v206h129v31q0 129 46 204t112.5 114t139.5 50t128 11h375q139 0 139 -139v-1051q0 -45 45 -45h80v-219h-246q-74 0 -106.5 33t-32.5 106v1049q0 45 -45 45h-174q-29 0 -64 -4t-65.5 -20.5t-51 -49.5t-20.5 -90v-25h223v-206h-223v-838h-260v838h-129z" />
<glyph unicode="&#xfb03;" horiz-adv-x="1986" d="M41 838v206h129v31q0 129 46 205t112.5 117t139.5 53t128 12q20 0 35.5 -1t27.5 -3t25 -2v-221q-8 0 -16 2q-8 0 -19.5 1t-23.5 1q-29 0 -63 -6t-62.5 -24.5t-49 -53.5t-20.5 -92v-19h426v31q0 129 46 205t112.5 117t140.5 53t129 12q18 0 34.5 -1t27.5 -3q12 -2 24 -2 v-221q-8 0 -16 2q-8 0 -18.5 1t-22.5 1q-29 0 -62.5 -6t-63.5 -24.5t-50.5 -53.5t-20.5 -92v-19h555q74 0 106.5 -33.5t32.5 -105.5v-641q0 -45 45 -45h82v-219h-247q-74 0 -107 33t-33 106v654q0 45 -45 45h-389v-838h-260v838h-426v-838h-260v838h-129zM1563 1214v240h225 v-240h-225z" />
<glyph unicode="&#xfb04;" horiz-adv-x="1970" d="M41 838v206h129v33q0 127 45 204t111.5 117t139.5 52t128 12q20 0 36.5 -1t28.5 -3q14 -2 25 -2v-221q-8 0 -16 2q-8 0 -18.5 1t-22.5 1q-29 0 -63 -6t-63.5 -24.5t-50 -52.5t-20.5 -91v-21h428v31q0 129 46 204t112.5 114t139.5 50t128 11h375q139 0 139 -139v-1051 q0 -45 45 -45h80v-219h-246q-74 0 -106.5 33t-32.5 106v1049q0 45 -45 45h-174q-29 0 -63.5 -4t-65.5 -20.5t-51.5 -49.5t-20.5 -90v-25h223v-206h-223v-838h-260v838h-428v-838h-260v838h-129z" />
</font>
</defs>
</svg>
